<svg version="1.0" xmlns="http://www.w3.org/2000/svg"
 width="1024.000000pt" height="1024.000000pt" viewBox="0 0 1024.000000 1024.000000"
 preserveAspectRatio="xMidYMid meet">
<g transform="translate(0.000000,1024.000000) scale(0.100000,-0.100000)"
fill="#000000" stroke="none">
<path d="M2506 9824 c-146 -35 -277 -144 -344 -286 -22 -45 -77 -190 -122
-322 -211 -614 -255 -661 -800 -847 -365 -124 -463 -171 -548 -262 -121 -132
-168 -320 -123 -497 11 -46 36 -109 54 -139 44 -76 132 -163 197 -196 76 -39
249 -104 435 -164 89 -29 223 -83 302 -121 191 -93 229 -131 323 -325 38 -77
101 -230 139 -340 134 -382 161 -436 258 -525 61 -56 171 -112 251 -129 180
-37 360 17 492 149 75 75 103 127 180 340 29 80 75 206 103 280 77 212 149
351 216 420 47 48 81 70 192 123 74 36 220 95 324 130 222 76 386 140 435 170
61 37 150 130 185 192 52 92 68 170 63 295 -8 166 -70 292 -191 390 -73 59
-148 92 -443 193 -488 168 -569 223 -684 461 -32 67 -76 173 -99 236 -22 63
-70 198 -106 300 -75 211 -107 271 -188 346 -132 123 -322 171 -501 128z m164
-861 c12 -32 42 -116 67 -188 59 -172 158 -370 237 -476 159 -211 346 -334
716 -472 223 -83 210 -78 210 -87 0 -4 -55 -28 -123 -53 -230 -85 -332 -128
-422 -179 -310 -175 -482 -397 -623 -808 -62 -181 -82 -230 -92 -230 -9 0 -30
52 -87 215 -145 415 -298 626 -576 794 -114 69 -195 105 -414 186 -101 37
-183 71 -183 75 0 8 39 25 245 101 268 99 434 196 575 338 155 156 246 318
360 641 35 96 65 181 67 188 10 24 22 11 43 -45z"/>
<path d="M7495 9830 c-113 -24 -196 -72 -283 -165 -72 -77 -91 -116 -176 -360
-258 -742 -252 -736 -956 -980 -228 -79 -316 -123 -394 -195 -250 -234 -208
-661 83 -845 55 -34 209 -94 425 -167 199 -66 369 -139 452 -194 78 -52 126
-112 187 -233 62 -122 66 -132 183 -456 47 -132 100 -266 116 -298 39 -73 157
-185 231 -221 221 -104 466 -60 630 113 74 79 102 132 172 331 201 566 258
674 407 771 79 51 241 120 410 175 215 70 413 149 474 190 277 184 316 586 81
824 -81 81 -170 123 -492 235 -416 144 -549 221 -636 370 -53 90 -129 275
-209 510 -96 279 -111 315 -164 389 -118 165 -335 248 -541 206z m190 -1010
c72 -204 148 -367 223 -478 102 -153 290 -312 477 -405 39 -19 144 -62 234
-96 226 -86 241 -92 241 -101 0 -8 -78 -40 -285 -116 -285 -104 -518 -269
-657 -464 -57 -81 -137 -233 -171 -325 -15 -38 -49 -133 -78 -210 -28 -77 -55
-144 -59 -149 -12 -12 -22 12 -91 205 -111 315 -198 469 -349 619 -146 146
-339 257 -615 354 -171 61 -224 85 -205 96 8 4 92 36 185 70 316 116 460 197
616 348 160 153 256 322 369 642 70 198 78 216 91 203 5 -5 38 -92 74 -193z"/>
<path d="M355 6301 c-76 -36 -136 -102 -158 -173 -20 -67 -44 -344 -59 -694
-21 -508 24 -1039 124 -1454 57 -237 138 -506 207 -685 87 -227 84 -220 195
-448 180 -371 366 -668 614 -977 129 -161 210 -251 391 -429 646 -640 1433
-1081 2326 -1305 611 -153 1362 -176 1975 -60 1131 213 2164 814 2913 1696
426 502 747 1077 961 1721 203 607 287 1241 258 1944 -17 405 -38 641 -62 707
-55 145 -232 223 -384 169 -67 -24 -148 -99 -175 -163 -26 -61 -26 -49 -16
-625 8 -506 1 -701 -35 -974 -107 -798 -408 -1534 -890 -2176 -505 -671 -1211
-1192 -2006 -1480 -466 -169 -911 -246 -1419 -246 -905 1 -1783 294 -2515 841
-834 623 -1413 1489 -1680 2515 -127 486 -160 871 -141 1614 10 392 10 452 -4
497 -53 178 -251 265 -420 185z"/>
<path d="M4980 5110 c-102 -15 -238 -57 -318 -101 -393 -211 -586 -650 -585
-1334 0 -562 138 -959 416 -1195 193 -164 415 -239 672 -227 265 13 472 101
640 273 171 174 277 400 325 694 57 349 49 711 -22 1040 -97 451 -374 754
-765 835 -95 20 -274 27 -363 15z m257 -642 c123 -40 211 -158 252 -338 71
-308 47 -836 -46 -1026 -36 -73 -111 -157 -166 -183 -183 -89 -378 -12 -473
186 -96 199 -124 663 -59 978 66 318 251 462 492 383z"/>
</g>
</svg>
