<svg version="1.0" xmlns="http://www.w3.org/2000/svg" width="800.000000" height="800.000000" viewBox="0 0 800.000000 800.000000" preserveAspectRatio="xMidYMid meet">
  <g transform="translate(154.315363,646.330073) scale(0.061443,-0.061443)" fill="#000000" stroke="#000000" stroke-width="240" stroke-linejoin="round" stroke-linecap="round">
    <path d="M5965 7423 c-93 -12 -307 -97 -468 -185 -159 -88 -356 -225 -542 -377 -115 -94 -84 -89 -315 -48 -479 87 -818 86 -1372 -5 -70 -11 -138 -18 -150 -14 -13 3 -57 36 -98 72 -264 233 -600 444 -830 520 -108 37 -264 41 -345 10 -198 -75 -310 -254 -409 -652 -77 -307 -106 -584 -116 -1124 -5 -243 -13 -443 -19 -468 -6 -23 -33 -84 -60 -135 -147 -276 -224 -542 -276 -952 -8 -61 -8 -422 0 -490 22 -193 78 -420 139 -564 102 -241 289 -480 497 -635 53 -39 104 -76 113 -81 16 -9 11 -20 -48 -98 -111 -148 -171 -291 -196 -472 -41 -290 72 -609 270 -762 30 -23 63 -51 74 -61 10 -11 50 -53 90 -94 84 -88 170 -135 320 -173 148 -37 255 -48 416 -42 253 10 496 80 573 165 15 16 24 19 42 12 112 -42 830 -65 1127 -35 95 9 220 25 278 36 l105 18 35 -33 c103 -97 290 -152 555 -163 237 -10 427 22 580 97 88 42 150 97 202 177 20 33 56 68 92 92 121 82 218 220 261 371 31 106 38 287 16 404 -32 170 -105 335 -208 472 -21 28 -38 55 -38 60 0 5 42 39 92 74 217 152 415 390 527 632 118 255 168 535 158 893 -11 427 -91 759 -278 1155 l-64 135 -6 465 c-7 470 -13 576 -50 820 -49 327 -138 624 -226 758 -111 167 -272 248 -448 225z m-3800 -156 c212 -74 488 -248 770 -487 112 -95 151 -120 185 -120 11 0 81 11 155 25 508 94 915 92 1421 -7 189 -37 187 -37 286 49 88 77 305 239 418 312 107 70 362 198 460 232 39 13 99 24 151 27 111 6 167 -17 242 -97 64 -70 105 -145 151 -281 115 -343 166 -765 166 -1394 0 -341 7 -410 52 -501 145 -296 230 -564 273 -865 21 -149 30 -443 16 -575 -12 -127 -51 -320 -61 -308 -3 4 -14 35 -24 68 -65 216 -268 430 -489 515 -239 93 -460 74 -717 -62 -63 -34 -155 -83 -205 -109 -196 -103 -399 -116 -563 -34 -40 20 -105 68 -160 118 -166 149 -315 221 -523 253 -111 17 -270 14 -384 -6 -156 -28 -319 -105 -490 -231 -188 -138 -287 -184 -424 -195 -142 -12 -279 30 -426 129 -85 57 -187 104 -285 128 -111 28 -297 23 -405 -11 -167 -53 -319 -154 -417 -279 -88 -110 -130 -200 -152 -325 l-12 -70 -27 100 c-52 195 -61 279 -62 554 0 276 7 348 57 570 47 208 137 450 229 615 56 100 60 136 69 573 5 221 11 433 15 470 36 402 80 642 159 871 75 217 159 328 279 367 60 20 186 11 272 -19z m2080 -3377 c147 -37 234 -88 396 -231 91 -80 145 -112 242 -147 64 -23 87 -26 207 -26 126 0 141 2 227 32 95 32 187 75 257 120 72 45 210 110 286 133 106 33 266 34 364 1 152 -51 295 -148 379 -257 97 -128 141 -264 135 -424 -3 -94 -7 -114 -35 -174 -67 -142 -198 -301 -340 -415 -173 -136 -242 -169 -621 -297 -431 -144 -559 -210 -740 -380 -144 -135 -236 -276 -293 -445 -26 -80 -32 -115 -36 -222 -4 -80 -1 -150 6 -189 7 -33 10 -63 7 -66 -9 -10 -172 -33 -339 -48 -274 -25 -649 -19 -955 16 -98 11 -103 13 -97 33 36 125 32 306 -10 436 -92 288 -313 544 -595 689 -117 61 -195 92 -470 188 -321 113 -453 179 -605 304 -222 182 -317 355 -318 579 -1 252 130 452 377 577 135 68 319 92 456 60 57 -14 184 -67 176 -74 -2 -2 -22 5 -45 16 -70 36 -207 64 -276 56 -234 -25 -387 -146 -449 -354 -20 -69 -21 -218 -1 -294 36 -137 140 -275 254 -336 152 -81 337 -82 499 -3 74 35 189 149 225 222 31 64 57 173 57 244 0 126 -60 267 -155 361 -33 32 -53 55 -45 50 8 -5 38 -23 65 -40 68 -43 164 -80 257 -99 229 -47 417 12 692 217 160 120 304 182 481 206 102 14 286 5 380 -19z m-2126 -285 c177 -42 291 -160 323 -335 36 -193 -89 -389 -285 -445 -86 -25 -205 -18 -279 17 -290 135 -324 576 -57 723 95 52 192 65 298 40z m-211 -1401 c58 -25 187 -72 301 -111 127 -42 320 -116 358 -137 27 -15 25 -15 -53 -16 -366 -1 -698 -301 -743 -671 -5 -42 -6 -98 -3 -124 6 -61 -3 -55 -63 35 -154 232 -162 573 -18 833 44 78 149 207 170 207 7 0 30 -7 51 -16z m4291 -67 c69 -91 143 -247 171 -357 30 -116 36 -264 16 -360 -18 -87 -79 -218 -129 -274 l-34 -40 -6 96 c-12 184 -83 347 -210 484 -148 159 -356 253 -562 254 l-80 1 60 25 c33 14 192 70 354 125 162 55 301 104 310 109 36 21 56 10 110 -63z m-3513 -337 c107 -28 202 -86 299 -184 139 -140 209 -307 210 -501 0 -245 -65 -319 -335 -378 -76 -16 -130 -21 -270 -20 -199 0 -306 16 -435 65 l-80 31 95 88 c52 49 100 89 106 89 14 0 64 -53 64 -68 0 -7 -4 -12 -10 -12 -16 0 -11 -30 6 -37 9 -3 25 -1 34 5 15 9 31 0 102 -58 45 -39 88 -70 94 -70 21 0 26 34 7 48 -49 35 -143 117 -143 124 0 4 9 13 20 20 26 16 26 48 1 48 -10 0 -24 -7 -31 -15 -19 -23 -38 -18 -75 18 l-34 33 49 49 c52 51 60 69 35 78 -9 4 -35 -13 -67 -42 l-53 -48 -59 53 c-64 58 -73 63 -83 38 -4 -11 12 -34 50 -71 l55 -56 -90 -86 c-50 -47 -94 -87 -98 -89 -19 -7 -92 75 -122 136 -71 144 -43 382 65 542 152 228 432 337 693 270z m2882 5 c119 -25 223 -80 321 -170 228 -209 277 -565 104 -756 -43 -48 -98 -81 -179 -110 -69 -24 -191 -49 -240 -49 -34 0 -34 0 -14 20 11 11 31 22 45 26 15 4 25 13 25 24 0 10 26 39 57 64 l56 47 48 -47 c44 -43 69 -51 69 -20 0 6 -18 30 -40 51 -22 21 -40 43 -40 47 0 9 66 71 134 125 49 41 55 53 31 73 -12 10 -27 1 -87 -57 -125 -117 -109 -111 -162 -63 -41 38 -59 70 -38 70 16 0 114 99 107 109 -12 20 -32 11 -90 -40 -53 -46 -59 -49 -74 -35 -20 18 -51 21 -51 5 0 -6 5 -19 11 -31 9 -16 7 -24 -10 -42 -40 -43 -16 -63 35 -29 26 16 26 16 69 -28 24 -24 44 -47 45 -51 0 -8 -87 -91 -102 -97 -5 -2 -20 7 -33 19 -14 13 -31 20 -39 17 -22 -8 -20 -24 4 -44 11 -10 20 -22 20 -27 0 -9 -69 -72 -95 -88 -16 -9 -253 7 -324 23 l-53 11 63 64 c35 35 69 64 76 64 6 0 29 -16 50 -35 40 -37 57 -43 69 -23 4 6 -10 27 -34 50 -23 21 -42 44 -42 51 0 7 25 32 55 57 55 46 66 66 40 76 -9 4 -38 -14 -74 -45 -32 -28 -62 -51 -66 -51 -4 0 -23 14 -42 30 -56 50 -75 18 -22 -36 l31 -32 -55 -52 c-30 -28 -61 -64 -67 -81 -15 -35 -23 -33 -114 14 -104 55 -145 132 -153 287 -6 130 18 243 79 370 33 70 56 100 127 170 162 160 357 220 569 175z"/>
    <path d="M2015 6881 c-99 -46 -158 -162 -207 -411 -20 -100 -23 -146 -23 -350 0 -219 1 -237 21 -270 23 -40 58 -56 99 -46 15 4 75 52 134 109 187 180 243 230 403 355 86 67 166 134 177 148 46 58 15 123 -123 259 -103 102 -215 181 -295 210 -58 20 -137 19 -186 -4z m180 -125 c105 -49 305 -233 305 -281 0 -12 -7 -26 -16 -29 -48 -18 -320 -244 -480 -398 -50 -49 -94 -88 -99 -88 -4 0 -5 87 -2 193 5 202 25 342 67 468 52 155 110 189 225 135z"/>
    <path d="M5838 6881 c-111 -36 -249 -133 -375 -264 -151 -157 -142 -192 94 -371 116 -88 286 -233 416 -353 78 -74 92 -83 126 -83 90 0 131 121 131 389 0 374 -82 611 -235 682 -50 23 -84 23 -157 0z m127 -119 c94 -57 154 -314 142 -606 -10 -231 0 -222 -121 -113 -130 119 -245 214 -376 312 -109 82 -120 92 -120 113 0 16 114 128 188 185 93 72 196 125 242 127 8 0 29 -8 45 -18z"/>
    <path d="M2835 5320 c-88 -22 -152 -75 -185 -152 -31 -71 -25 -176 13 -240 74 -127 242 -208 433 -209 99 -1 148 12 210 54 167 112 112 373 -103 490 -101 54 -274 81 -368 57z m210 -125 c82 -22 151 -62 193 -113 31 -38 37 -53 40 -108 4 -61 3 -65 -28 -94 -39 -36 -78 -44 -189 -37 -106 6 -183 34 -244 87 -55 49 -71 85 -65 150 6 56 32 93 83 116 41 18 138 17 210 -1z"/>
    <path d="M4950 5314 c-140 -37 -243 -110 -302 -212 -26 -46 -32 -69 -36 -131 -4 -90 10 -133 65 -186 128 -125 476 -86 638 70 87 85 113 203 66 307 -29 63 -109 134 -174 153 -63 19 -185 18 -257 -1z m246 -123 c77 -35 107 -127 68 -208 -40 -81 -165 -141 -314 -150 -98 -6 -155 6 -194 42 -21 20 -26 33 -26 74 0 64 11 91 56 141 91 100 299 152 410 101z"/>
    <path d="M2832 4508 c-64 -10 -100 -27 -154 -76 -79 -72 -118 -164 -118 -284 0 -169 97 -313 239 -355 154 -44 308 40 372 204 32 83 32 226 1 304 -59 147 -193 229 -340 207z m117 -133 c16 -8 34 -28 41 -45 17 -41 2 -75 -44 -96 -32 -16 -36 -16 -72 2 -65 32 -70 113 -10 142 30 15 53 14 85 -3z"/>
    <path d="M5005 4486 c-56 -26 -123 -93 -154 -154 -73 -142 -39 -356 73 -464 65 -64 109 -82 201 -82 68 -1 89 3 137 27 160 78 232 301 159 490 -27 69 -109 158 -173 187 -64 29 -177 27 -243 -4z m155 -113 c34 -23 40 -33 40 -69 0 -55 -60 -92 -117 -73 -62 20 -76 99 -25 139 30 24 69 26 102 3z"/>
    <path d="M3803 3741 c-89 -25 -139 -50 -180 -93 -97 -100 -81 -245 40 -374 50 -54 183 -154 220 -167 18 -6 -1 -51 -35 -86 -89 -91 -197 -93 -300 -6 -59 51 -98 58 -122 23 -26 -37 -19 -63 28 -106 132 -121 309 -135 441 -34 27 20 60 53 73 72 13 19 26 36 30 37 4 2 25 -19 47 -46 111 -135 273 -172 415 -95 97 53 131 115 90 167 -12 15 -28 27 -37 27 -8 0 -40 -22 -69 -50 -102 -93 -223 -80 -314 35 -16 21 -30 41 -30 46 0 4 42 39 94 78 160 120 220 209 221 327 0 61 -4 76 -28 112 -66 101 -174 143 -377 148 -110 3 -148 0 -207 -15z m376 -126 c68 -21 121 -71 121 -111 -1 -78 -66 -160 -189 -241 -47 -31 -90 -62 -94 -70 -14 -22 -32 -15 -129 51 -214 146 -267 274 -145 350 75 47 318 58 436 21z"/>
    <path d="M5780 3697 c-236 -79 -363 -271 -348 -520 7 -102 35 -183 94 -270 93 -135 236 -216 400 -225 109 -6 192 16 289 73 113 66 218 204 251 329 30 112 12 267 -44 370 -61 113 -217 227 -350 255 -87 18 -218 13 -292 -12z m251 -101 c135 -29 237 -104 291 -214 30 -61 33 -74 33 -162 0 -79 -4 -105 -26 -156 -28 -66 -77 -134 -97 -134 -7 0 -33 19 -57 41 -53 49 -54 45 51 124 49 38 71 60 68 70 -10 26 -31 17 -113 -50 -44 -36 -84 -65 -89 -65 -5 0 -17 9 -26 19 -17 19 -15 21 56 69 91 62 104 75 84 92 -12 9 -32 0 -107 -54 l-92 -66 -29 25 c-15 13 -35 22 -43 19 -20 -8 -19 -14 11 -45 l26 -27 -51 -38 c-50 -38 -61 -57 -40 -69 9 -6 32 7 106 61 21 15 25 15 49 -1 l26 -17 -21 -22 c-12 -12 -21 -28 -21 -34 0 -17 30 -15 51 4 20 18 28 15 87 -37 39 -34 41 -37 24 -52 -9 -8 -42 -28 -72 -44 -49 -25 -65 -28 -155 -28 -88 0 -107 3 -157 27 -76 35 -130 80 -173 143 -86 124 -99 302 -31 433 42 82 151 159 264 186 74 18 93 19 173 2z"/>
    <path d="M3773 1178 l-33 -32 -28 27 c-49 47 -74 23 -31 -31 l21 -27 -57 -52 c-40 -35 -56 -56 -52 -67 9 -24 16 -21 86 35 l63 51 48 -47 c32 -31 54 -46 64 -42 24 9 20 19 -29 67 -25 24 -45 50 -45 56 0 7 14 22 30 34 33 24 41 60 12 60 -9 0 -32 -14 -49 -32z"/>
  </g>
</svg>
