<svg version="1.0" xmlns="http://www.w3.org/2000/svg" width="800.000000" height="800.000000" viewBox="0 0 800.000000 800.000000" preserveAspectRatio="xMidYMid meet">
  <g transform="translate(170.679167,649.882536) scale(0.059503,-0.059503)" fill="#000000" stroke="none">
    <path d="M2033 7716 c-205 -65 -407 -345 -568 -790 -119 -330 -162 -530 -224 -1061 -44 -366 -79 -482 -223 -741 -223 -402 -328 -697 -383 -1077 -23 -153 -30 -413 -16 -537 40 -344 164 -692 344 -964 l65 -100 -32 -40 c-110 -139 -163 -270 -173 -432 -15 -257 75 -502 251 -680 167 -168 381 -247 621 -230 198 14 332 73 465 205 48 47 100 103 116 125 l30 38 139 -55 c504 -199 1008 -297 1524 -297 257 0 569 31 809 81 52 10 97 19 101 19 4 0 30 -35 58 -78 100 -153 246 -288 388 -358 79 -39 229 -74 320 -74 79 0 226 31 297 63 142 63 274 172 357 296 151 222 178 465 81 732 l-30 84 53 45 c387 332 592 709 674 1240 25 162 25 643 0 812 -18 121 -62 330 -96 458 -11 41 -29 109 -40 150 -11 41 -25 109 -31 150 -12 80 -16 49 69 620 54 358 75 805 51 1038 -47 441 -193 724 -417 813 -84 33 -250 32 -383 -4 -224 -59 -507 -190 -827 -382 -106 -63 -198 -115 -206 -115 -8 0 -50 11 -93 26 -138 44 -498 132 -631 154 -267 43 -381 52 -755 57 l-367 4 -148 148 c-186 186 -319 296 -503 420 -313 209 -520 283 -667 237z m188 -132 c256 -76 686 -388 984 -715 33 -35 67 -70 76 -77 14 -9 110 -13 391 -16 573 -5 867 -48 1368 -199 191 -58 177 -59 307 22 359 225 717 396 934 448 110 26 241 23 301 -6 74 -36 143 -113 194 -215 157 -322 174 -840 53 -1611 -58 -374 -63 -421 -51 -525 7 -52 34 -177 61 -277 105 -386 126 -540 126 -903 -1 -244 -3 -278 -29 -425 -27 -155 -84 -352 -139 -475 l-24 -55 5 130 c6 159 -14 253 -82 390 -77 156 -192 272 -341 346 -127 62 -216 82 -375 82 -203 0 -299 -25 -575 -151 -145 -66 -194 -76 -346 -70 -213 8 -279 44 -509 269 -209 206 -328 286 -519 349 -126 41 -229 53 -389 47 -141 -5 -227 -23 -337 -70 -54 -23 -209 -114 -259 -152 -53 -41 -178 -93 -258 -109 -97 -20 -168 -20 -266 -1 -98 20 -180 61 -309 155 -210 153 -361 228 -518 257 -338 62 -735 -143 -911 -470 l-31 -58 -6 109 c-12 216 16 474 79 718 64 252 140 434 299 719 101 182 161 322 188 435 32 135 38 171 62 395 39 361 70 529 142 785 106 375 271 703 425 845 101 94 166 112 279 79z m-456 -3708 c104 -35 206 -91 330 -179 147 -106 161 -115 225 -147 138 -70 323 -95 470 -66 125 26 223 67 345 147 230 150 350 191 560 190 162 0 263 -22 398 -84 127 -59 215 -124 354 -265 154 -154 230 -214 329 -260 97 -44 187 -62 320 -62 142 0 224 21 391 98 162 75 230 98 345 117 123 20 195 19 302 -5 134 -30 225 -80 322 -175 122 -122 177 -243 191 -425 14 -184 -61 -422 -191 -604 -40 -57 -249 -266 -265 -266 -4 0 -24 39 -46 88 -189 427 -327 655 -453 747 -104 76 -209 110 -342 109 -312 -2 -591 -268 -665 -633 -24 -114 -16 -396 14 -523 24 -104 89 -305 108 -333 7 -11 13 -25 13 -31 0 -17 -224 -59 -460 -86 -173 -19 -639 -16 -825 6 -213 24 -525 87 -525 104 0 4 9 22 20 39 18 30 24 33 68 33 57 0 65 -5 49 -31 -10 -16 -9 -21 2 -28 21 -13 38 -3 50 30 10 29 11 29 88 29 105 0 126 -7 120 -36 -2 -12 -1 -28 4 -35 10 -17 37 5 41 34 3 20 10 22 71 25 57 2 67 6 67 21 0 15 -11 20 -59 25 -55 6 -58 8 -53 31 2 14 1 32 -2 41 -9 23 -33 2 -41 -37 l-7 -29 -89 0 c-100 0 -98 -3 -42 68 32 40 38 72 13 72 -5 0 -36 -31 -67 -70 l-57 -70 -52 0 c-49 0 -51 1 -46 25 6 34 -22 34 -44 -1 -14 -20 -24 -24 -53 -22 -28 2 -36 8 -41 27 l-6 25 -32 -32 c-18 -18 -38 -32 -44 -32 -6 0 2 -12 17 -26 20 -18 31 -22 38 -15 6 6 24 11 40 11 27 0 28 -2 22 -32 -4 -18 -9 -35 -10 -36 -15 -17 -605 192 -605 213 0 3 13 29 29 58 67 121 146 375 172 556 17 121 7 364 -20 466 -31 117 -109 268 -175 341 -110 121 -237 177 -401 177 -196 1 -298 -46 -460 -208 -100 -100 -256 -300 -325 -417 -12 -21 -25 -36 -29 -33 -11 6 -133 192 -170 258 -73 132 -161 362 -177 464 -8 53 23 159 77 263 106 205 302 357 534 415 91 22 240 14 340 -19z m274 -857 c140 -22 247 -107 324 -259 66 -129 82 -210 82 -415 0 -194 -13 -268 -76 -459 -80 -239 -173 -403 -298 -526 -124 -122 -237 -165 -436 -165 -158 0 -244 25 -368 108 -164 110 -274 287 -306 494 -23 151 -9 257 49 379 22 45 52 96 67 114 23 28 28 30 38 16 7 -9 25 -19 41 -22 37 -7 50 8 132 146 122 205 287 414 389 495 73 57 180 96 278 103 11 1 49 -3 84 -9z m3390 -319 c131 -22 231 -96 331 -248 59 -88 190 -350 283 -562 54 -124 67 -146 91 -155 22 -8 36 -5 67 12 l39 21 25 -81 c61 -191 53 -342 -26 -506 -49 -101 -164 -227 -261 -284 -109 -65 -204 -90 -338 -91 -102 0 -123 3 -189 28 -204 77 -341 209 -475 457 -57 106 -117 271 -148 409 -19 89 -23 133 -23 280 0 151 3 186 23 253 41 145 103 249 197 335 89 82 190 125 330 141 6 0 39 -4 74 -9z"/>
    <path d="M2151 7149 c-114 -45 -245 -291 -319 -600 -40 -164 -53 -254 -55 -391 -3 -153 16 -188 97 -188 38 0 78 25 218 136 153 122 307 230 480 337 86 53 163 108 173 123 21 32 22 106 1 154 -23 55 -121 188 -194 263 -76 78 -163 141 -223 163 -46 16 -142 18 -178 3z m191 -155 c116 -78 288 -288 288 -351 0 -12 -22 -30 -63 -52 -132 -72 -389 -251 -605 -422 -29 -23 -55 -40 -57 -37 -3 2 0 54 6 114 27 275 141 622 245 743 37 42 38 43 90 39 37 -3 66 -13 96 -34z"/>
    <path d="M6180 6631 c-189 -61 -521 -292 -520 -361 1 -37 17 -60 95 -131 166 -152 331 -342 472 -545 93 -134 113 -154 153 -154 51 0 84 57 125 220 39 153 56 274 62 445 11 310 -38 470 -162 526 -52 24 -152 24 -225 0z m195 -135 c46 -46 60 -122 60 -326 -1 -102 -6 -221 -14 -265 -13 -85 -50 -255 -58 -268 -3 -4 -27 24 -54 63 -115 168 -300 384 -425 497 l-76 69 83 61 c81 60 240 150 316 178 21 7 62 14 91 14 43 1 57 -3 77 -23z"/>
    <path d="M6176 6220 c-27 -13 -43 -16 -51 -10 -12 10 -45 4 -45 -8 0 -3 7 -14 17 -24 15 -17 15 -20 -7 -43 -24 -25 -22 -55 4 -55 8 0 21 9 30 21 l14 21 11 -20 c6 -12 11 -30 11 -41 0 -11 8 -25 18 -30 10 -5 34 -41 52 -81 23 -47 40 -69 50 -67 16 3 18 25 5 70 -6 21 -4 27 9 27 9 0 16 8 16 20 0 16 -7 20 -31 20 -33 0 -60 25 -52 47 3 7 25 22 49 32 46 21 60 51 23 51 -12 0 -39 -10 -61 -22 -39 -22 -40 -22 -54 -3 -20 27 -18 32 26 61 65 43 37 71 -34 34z"/>
    <path d="M2775 5458 c-75 -27 -141 -94 -176 -178 -22 -55 -17 -175 11 -230 40 -79 90 -139 155 -185 119 -85 232 -125 357 -125 67 0 84 4 139 33 114 59 172 172 152 294 -16 89 -49 149 -124 225 -76 75 -214 151 -308 168 -68 13 -167 12 -206 -2z m226 -138 c156 -48 269 -161 285 -283 7 -56 -27 -123 -76 -149 -94 -49 -301 8 -410 113 -104 101 -112 235 -20 313 27 22 41 26 95 26 34 0 91 -9 126 -20z"/>
    <path d="M4950 5227 c-154 -46 -285 -147 -340 -262 -59 -124 -34 -264 62 -351 126 -113 346 -130 531 -41 121 58 196 138 232 246 45 138 -23 303 -155 375 -109 60 -207 69 -330 33z m254 -141 c238 -139 74 -435 -244 -440 -76 -1 -91 2 -145 29 -76 38 -105 79 -105 148 0 65 29 126 85 175 129 113 302 151 409 88z"/>
    <path d="M2516 4394 c-93 -21 -159 -56 -227 -121 -96 -91 -123 -181 -62 -204 44 -16 71 -3 104 52 63 102 160 149 305 149 162 0 247 -55 320 -206 48 -100 65 -114 117 -95 35 14 43 49 23 109 -78 235 -330 372 -580 316z"/>
    <path d="M4968 4145 c-121 -33 -240 -127 -297 -235 -37 -70 -37 -95 1 -123 40 -30 74 -15 107 48 34 66 104 135 166 165 41 20 66 24 140 24 81 1 95 -2 143 -28 82 -46 127 -111 160 -233 15 -56 24 -70 47 -82 32 -16 71 -6 89 21 27 44 -49 241 -125 323 -104 112 -280 162 -431 120z"/>
    <path d="M3517 3659 c-119 -28 -215 -109 -237 -200 -27 -112 11 -198 155 -348 56 -58 109 -117 118 -131 36 -52 16 -95 -63 -136 -25 -13 -56 -19 -110 -18 -89 0 -140 21 -234 96 -33 27 -67 47 -74 46 -28 -6 -55 -54 -48 -84 9 -33 62 -85 128 -126 43 -27 47 -33 53 -76 26 -216 55 -318 114 -409 74 -115 175 -168 316 -167 225 3 375 166 435 476 12 58 17 67 39 73 46 12 132 57 167 87 24 21 34 39 34 59 0 30 -30 69 -54 69 -7 0 -46 -19 -87 -42 -67 -40 -80 -43 -155 -47 -71 -3 -90 0 -137 22 -63 29 -97 71 -97 121 0 39 13 50 180 146 142 83 222 186 223 289 1 140 -131 244 -376 296 -75 16 -230 18 -290 4z m301 -138 c95 -25 175 -64 207 -102 66 -79 2 -168 -200 -278 -42 -23 -94 -58 -116 -78 -21 -19 -39 -30 -39 -24 0 6 -54 67 -119 135 -130 136 -159 186 -147 250 8 42 56 85 113 103 61 19 218 15 301 -6z m-111 -751 c49 -51 143 -107 194 -115 22 -4 42 -12 45 -19 8 -20 -34 -165 -67 -232 -55 -111 -136 -167 -244 -168 -81 0 -127 17 -179 70 -50 49 -86 143 -106 269 -6 39 -13 79 -15 91 -4 20 1 22 73 27 83 5 164 38 227 91 17 14 31 25 32 26 1 0 19 -18 40 -40z"/>
    <path d="M1630 1661 c-57 -66 -107 -118 -112 -115 -5 3 -34 39 -64 80 -30 41 -59 74 -65 74 -29 0 -16 -37 41 -115 l62 -86 -66 -73 c-63 -70 -77 -98 -57 -110 5 -3 41 28 80 70 l72 77 24 -23 c14 -13 25 -32 25 -42 0 -10 6 -18 14 -18 13 0 30 -17 109 -108 28 -33 67 -43 67 -18 0 8 -22 38 -48 68 -27 29 -56 64 -65 78 -16 23 -16 25 5 47 16 17 19 26 11 34 -12 12 -25 9 -55 -13 -14 -10 -20 -8 -36 12 l-19 24 109 124 c60 69 107 130 105 136 -10 31 -41 8 -137 -103z"/>
    <path d="M5645 1428 c-27 -101 -82 -251 -92 -255 -7 -3 -61 11 -120 31 -123 41 -146 44 -141 19 2 -13 37 -30 116 -58 61 -22 112 -44 112 -49 0 -4 -11 -21 -24 -36 -21 -25 -26 -27 -42 -16 -11 8 -35 23 -54 33 -19 11 -58 35 -87 53 -50 31 -90 35 -81 8 3 -7 50 -40 106 -73 56 -33 101 -65 102 -70 0 -6 -18 -32 -40 -59 -38 -45 -43 -66 -18 -66 7 0 33 23 59 52 41 43 50 49 64 38 19 -16 19 -34 0 -50 -19 -15 -20 -50 -2 -50 8 0 24 11 37 25 15 16 30 23 41 20 22 -7 34 12 20 29 -13 16 -5 42 15 50 8 3 14 14 14 24 0 10 6 26 13 35 11 15 21 16 100 5 79 -11 89 -10 105 6 24 24 7 32 -81 40 -91 8 -163 29 -160 47 1 8 20 66 42 129 46 131 50 160 22 160 -12 0 -22 -9 -26 -22z m-31 -337 c9 -14 -59 -87 -76 -83 -24 5 -23 25 4 65 16 26 27 33 45 29 13 -2 25 -7 27 -11z"/>
  </g>
</svg>
