<svg version="1.0" xmlns="http://www.w3.org/2000/svg"
 width="1024.000000pt" height="1024.000000pt" viewBox="0 0 1024.000000 1024.000000"
 preserveAspectRatio="xMidYMid meet">
<g transform="translate(0.000000,1024.000000) scale(0.100000,-0.100000)"
fill="#000000" stroke="none">
<path d="M2775 8624 c-124 -19 -260 -50 -346 -80 -576 -200 -980 -725 -1073
-1392 -44 -319 -27 -438 81 -545 65 -65 134 -90 233 -85 88 5 155 35 212 95
65 67 80 118 89 288 15 288 76 486 211 682 316 459 980 524 1375 135 202 -199
323 -508 323 -828 0 -223 109 -360 296 -372 163 -10 290 82 330 240 29 109 8
359 -47 587 -163 667 -630 1133 -1259 1256 -82 16 -360 28 -425 19z"/>
<path d="M7097 8615 c-265 -43 -495 -141 -706 -300 -408 -309 -660 -842 -665
-1410 -1 -126 1 -145 22 -189 35 -76 86 -131 150 -163 50 -24 68 -28 147 -28
78 0 97 4 141 27 27 14 67 45 88 68 65 72 78 115 87 284 15 287 77 493 199
670 165 239 412 382 694 402 427 30 798 -235 947 -675 42 -122 59 -226 68
-396 9 -169 21 -208 86 -283 106 -122 302 -137 433 -33 92 73 129 185 118 361
-30 458 -167 825 -421 1129 -223 265 -539 454 -874 522 -130 27 -394 34 -514
14z"/>
<path d="M355 6302 c-77 -37 -140 -107 -160 -176 -14 -48 -21 -113 -45 -406
-18 -217 -23 -637 -11 -845 15 -244 59 -587 101 -795 38 -183 142 -551 199
-700 22 -58 56 -147 75 -198 117 -307 386 -799 590 -1081 107 -148 289 -373
398 -491 490 -536 1156 -994 1838 -1265 388 -154 794 -259 1200 -309 128 -16
454 -36 590 -36 296 0 620 32 912 91 738 148 1404 449 2038 923 74 55 146 110
160 122 609 523 1007 1031 1335 1699 408 832 576 1689 525 2685 -14 269 -38
558 -50 601 -12 42 -65 120 -100 146 -83 63 -204 80 -305 42 -112 -42 -189
-152 -188 -269 1 -25 4 -250 8 -500 8 -493 0 -728 -35 -991 -105 -781 -393
-1495 -859 -2129 -643 -875 -1590 -1482 -2642 -1694 -259 -52 -408 -67 -729
-73 -302 -6 -474 5 -738 47 -656 105 -1332 390 -1855 783 -500 377 -863 778
-1187 1317 -87 144 -223 410 -268 525 -11 28 -36 91 -57 140 -54 131 -131 368
-175 540 -128 492 -161 876 -142 1633 10 436 7 486 -33 549 -58 92 -135 135
-250 140 -72 4 -86 1 -140 -25z"/>
<path d="M3277 3736 c-173 -62 -250 -245 -173 -412 69 -147 292 -432 457 -581
384 -347 826 -547 1339 -604 231 -26 554 1 804 66 286 75 615 241 851 430 170
136 366 350 488 535 102 153 122 200 122 285 -1 297 -388 406 -545 154 -101
-163 -186 -274 -293 -382 -403 -407 -994 -585 -1552 -467 -461 97 -875 391
-1123 798 -29 48 -70 102 -90 119 -74 65 -197 90 -285 59z"/>
</g>
</svg>
