<svg version="1.0" xmlns="http://www.w3.org/2000/svg"
 width="1024.000000pt" height="1024.000000pt" viewBox="0 0 1024.000000 1024.000000"
 preserveAspectRatio="xMidYMid meet">
<g transform="translate(0.000000,1024.000000) scale(0.100000,-0.100000)"
fill="#000000" stroke="none">
<path d="M1762 8864 c-212 -35 -419 -140 -563 -283 -155 -156 -248 -334 -301
-576 -18 -87 -16 -321 5 -427 69 -350 283 -716 606 -1038 194 -193 401 -349
756 -571 285 -179 313 -192 422 -191 63 0 83 5 150 36 149 71 582 354 766 500
459 366 768 823 853 1261 23 121 24 331 1 448 -91 458 -430 781 -892 847 -151
21 -339 6 -491 -41 -91 -28 -247 -108 -327 -169 l-64 -48 -73 54 c-78 59 -216
130 -318 164 -144 47 -365 62 -530 34z m290 -645 c138 -29 234 -108 312 -256
74 -141 145 -201 267 -223 104 -19 227 24 295 104 19 22 51 74 72 115 91 184
253 283 439 267 102 -8 173 -38 241 -101 102 -95 148 -210 140 -354 -21 -350
-367 -790 -906 -1152 -168 -112 -220 -139 -249 -128 -77 29 -383 246 -545 386
-411 357 -623 740 -564 1021 19 91 56 160 116 216 105 98 240 135 382 105z"/>
<path d="M6650 8865 c-445 -70 -779 -394 -866 -841 -23 -118 -23 -328 0 -449
51 -264 179 -528 384 -795 93 -120 335 -359 477 -472 188 -148 611 -424 750
-489 122 -58 221 -57 339 3 78 39 362 220 537 340 346 240 596 486 798 787
206 306 317 685 282 968 -39 315 -168 559 -390 735 -94 75 -268 160 -396 195
-89 23 -118 26 -270 27 -188 0 -268 -14 -424 -74 -82 -32 -236 -123 -282 -166
-26 -25 -26 -25 -100 31 -230 173 -539 247 -839 200z m271 -645 c136 -25 250
-118 323 -265 22 -43 56 -95 75 -115 80 -82 189 -118 301 -98 116 21 186 81
256 220 77 153 180 234 333 260 203 35 392 -75 463 -269 27 -74 29 -218 4
-313 -24 -91 -112 -269 -187 -375 -76 -107 -333 -369 -469 -477 -92 -73 -317
-227 -412 -282 -55 -32 -47 -35 -223 77 -559 356 -936 818 -962 1182 -21 297
211 509 498 455z"/>
<path d="M361 6306 c-76 -33 -145 -108 -165 -177 -9 -30 -21 -108 -26 -174 -6
-66 -16 -174 -22 -240 -15 -159 -15 -871 0 -1000 43 -379 55 -459 99 -670 30
-140 138 -525 181 -640 89 -241 255 -618 319 -726 11 -19 55 -95 97 -169 148
-260 239 -393 441 -644 203 -254 437 -497 630 -655 50 -41 95 -79 100 -85 19
-21 320 -244 380 -282 33 -20 62 -40 65 -44 12 -16 377 -224 500 -285 263
-131 579 -254 838 -326 447 -125 750 -170 1247 -186 599 -18 1242 99 1830 332
311 123 667 310 946 496 111 73 366 259 419 305 273 235 448 408 648 641 67
79 122 145 122 149 0 3 15 24 34 47 138 170 348 504 488 777 195 378 355 812
433 1167 14 65 32 147 40 183 59 263 105 729 105 1060 0 317 -37 877 -64 963
-37 122 -137 197 -271 205 -111 6 -215 -43 -272 -129 -43 -65 -52 -127 -42
-295 11 -213 11 -850 -1 -1044 -22 -357 -86 -707 -192 -1055 -148 -487 -351
-896 -673 -1355 -192 -274 -564 -664 -820 -859 -38 -30 -88 -68 -110 -86 -56
-46 -354 -242 -450 -297 -392 -223 -843 -393 -1289 -483 -262 -52 -405 -66
-741 -72 -262 -4 -324 -2 -490 16 -343 39 -532 80 -895 193 -216 67 -594 239
-820 373 -365 217 -735 518 -1025 835 -79 87 -287 349 -341 430 -17 25 -50 74
-75 110 -120 172 -321 545 -387 715 -11 28 -36 91 -57 140 -107 261 -224 687
-265 965 -34 230 -41 298 -51 535 -8 186 -9 378 -2 675 12 494 10 510 -76 603
-74 81 -233 111 -340 63z"/>
<path d="M2222 5109 c-58 -11 -137 -56 -174 -98 -17 -19 -42 -60 -56 -90 -24
-52 -25 -59 -19 -200 17 -454 191 -1024 456 -1501 151 -271 433 -640 627 -820
307 -285 561 -465 859 -610 591 -288 1199 -362 1811 -220 586 136 1192 513
1634 1017 371 422 618 874 784 1429 67 225 127 569 129 749 2 95 0 104 -31
167 -43 88 -104 142 -190 168 -63 20 -93 20 -2926 19 -1573 -1 -2880 -5 -2904
-10z m5368 -645 c0 -3 -14 -62 -30 -132 -113 -474 -328 -900 -636 -1262 -514
-604 -1214 -946 -1874 -916 -394 17 -769 144 -1130 380 -161 106 -257 184
-404 326 -258 251 -454 522 -606 835 -125 260 -191 453 -256 753 -4 22 -4 22
2466 22 1358 0 2470 -2 2470 -6z"/>
</g>
</svg>
