<svg version="1.0" xmlns="http://www.w3.org/2000/svg" width="800.000000" height="800.000000" viewBox="0 0 800.000000 800.000000" preserveAspectRatio="xMidYMid meet">
  <g transform="translate(155.460169,645.553015) scale(0.061243,-0.061243)" fill="#000000" stroke="#000000" stroke-width="240" stroke-linejoin="round" stroke-linecap="round">
    <path d="M1907 7429 c-141 -33 -273 -152 -359 -324 -38 -74 -104 -285 -137 -437 -59 -266 -89 -606 -97 -1108 -6 -382 -5 -376 -78 -532 -140 -301 -203 -502 -247 -790 -26 -172 -36 -494 -20 -643 58 -527 289 -981 630 -1234 44 -32 86 -61 92 -63 8 -3 -7 -35 -44 -89 -69 -105 -118 -207 -154 -324 -25 -84 -27 -103 -27 -275 -1 -215 9 -270 80 -418 49 -101 126 -190 219 -250 27 -18 69 -57 92 -87 110 -140 290 -225 553 -260 323 -44 633 16 789 152 28 24 55 42 60 39 15 -10 256 -44 399 -57 201 -18 649 -7 827 20 77 12 165 28 195 36 55 13 55 13 85 -15 120 -113 365 -181 655 -183 221 -1 426 35 542 94 68 35 145 115 183 191 27 55 46 78 92 112 116 85 207 237 239 395 23 118 15 352 -16 470 -30 113 -80 229 -146 341 -30 51 -53 94 -52 95 2 1 32 21 67 45 35 23 94 68 130 99 36 30 72 60 79 66 7 5 47 48 88 95 83 92 172 220 221 315 126 247 196 656 173 1026 -26 428 -121 790 -300 1133 l-51 98 7 387 c6 377 1 544 -27 771 -43 357 -143 708 -248 875 -109 173 -263 259 -435 241 -250 -25 -651 -245 -1047 -573 -51 -41 -86 -63 -103 -63 -14 0 -90 11 -168 25 -458 80 -877 80 -1371 -1 -81 -13 -149 -24 -152 -24 -2 0 -14 11 -27 24 -36 37 -237 208 -298 253 -362 267 -696 398 -893 352z m241 -139 c214 -59 529 -255 777 -481 115 -105 162 -139 192 -139 13 0 79 11 146 25 232 46 388 60 702 60 314 0 468 -14 697 -60 188 -39 199 -37 293 40 263 214 466 352 670 456 172 87 276 119 386 119 199 0 320 -158 430 -562 80 -297 110 -587 107 -1043 -2 -181 -3 -384 -3 -450 l0 -120 87 -180 c101 -211 137 -310 184 -500 61 -249 77 -388 78 -665 1 -197 -3 -266 -18 -355 -30 -175 -31 -176 -75 -70 -92 225 -245 388 -453 484 -111 52 -202 71 -337 71 -195 0 -304 -35 -521 -166 -174 -105 -230 -124 -385 -131 -102 -5 -134 -2 -204 16 -107 27 -146 50 -278 166 -125 109 -236 179 -337 211 -212 67 -460 54 -668 -36 -49 -21 -147 -78 -218 -126 -309 -213 -352 -229 -570 -228 -129 0 -154 3 -225 27 -44 14 -107 43 -140 63 -158 95 -264 136 -398 154 -320 43 -675 -142 -837 -435 -21 -38 -44 -92 -51 -120 l-13 -50 -12 31 c-45 109 -80 423 -70 624 18 370 89 661 246 1010 48 107 93 219 99 248 6 31 11 158 11 305 0 753 73 1253 230 1583 50 103 113 174 192 213 52 26 72 31 137 31 46 0 106 -8 149 -20z m2059 -3379 c125 -33 190 -72 367 -225 49 -42 112 -90 140 -105 166 -95 411 -112 616 -45 48 16 134 59 212 106 225 135 278 153 463 153 148 0 226 -19 348 -82 167 -88 330 -309 367 -501 16 -79 8 -222 -15 -282 -51 -130 -235 -345 -396 -463 -145 -106 -202 -131 -564 -252 -342 -114 -486 -182 -648 -304 -340 -255 -517 -632 -438 -934 9 -37 17 -67 17 -67 -1 0 -48 -9 -106 -20 -336 -64 -839 -66 -1178 -3 l-94 17 7 30 c58 266 -35 556 -262 818 -174 202 -373 315 -801 457 -366 121 -497 185 -649 318 -254 222 -377 553 -288 778 93 236 337 416 610 449 47 6 45 5 -32 -22 -240 -82 -374 -280 -360 -532 8 -152 58 -262 168 -368 101 -98 236 -152 380 -152 236 0 414 137 494 380 49 146 4 370 -95 483 -38 44 -38 52 1 31 86 -44 192 -67 334 -71 157 -5 225 6 349 57 70 29 109 53 329 203 192 130 301 165 517 166 101 1 153 -4 207 -18z m-2017 -300 c103 -39 205 -145 244 -254 27 -73 32 -200 12 -268 -80 -279 -407 -379 -640 -196 -55 44 -124 143 -143 207 -25 85 -22 212 6 285 44 109 177 220 295 245 62 13 164 5 226 -19z m-323 -1402 c26 -11 169 -61 317 -110 147 -49 293 -102 324 -117 l56 -27 -75 -7 c-313 -30 -540 -191 -668 -476 -39 -87 -65 -223 -58 -309 2 -35 2 -63 -2 -63 -7 0 -66 76 -94 120 -25 41 -65 170 -78 250 -15 98 -6 263 21 365 25 99 84 223 151 321 28 41 53 74 54 74 2 0 25 -9 52 -21z m4310 -31 c136 -216 201 -441 189 -653 -8 -152 -48 -276 -116 -357 l-28 -33 -7 70 c-17 158 -87 329 -186 453 -127 159 -339 266 -554 280 l-100 7 80 34 c65 28 661 236 687 240 4 1 20 -18 35 -41z m-3437 -384 c97 -30 151 -65 225 -146 77 -84 148 -205 193 -326 32 -88 35 -107 36 -207 1 -147 -19 -211 -89 -280 -41 -42 -64 -55 -130 -77 -123 -40 -216 -53 -375 -51 -362 3 -610 112 -680 301 -67 179 -29 391 103 569 48 64 134 140 198 173 149 78 355 96 519 44z m2880 -4 c104 -36 176 -79 250 -147 133 -123 208 -280 217 -454 5 -81 2 -109 -16 -170 -57 -188 -154 -256 -421 -294 -201 -28 -432 -15 -609 35 -100 28 -142 51 -189 106 -63 71 -85 139 -85 259 0 159 59 313 174 457 92 115 180 174 324 215 107 30 258 28 355 -7z"/>
    <path d="M2045 6921 c-126 -41 -189 -165 -246 -488 -26 -146 -37 -456 -20 -521 16 -58 42 -82 89 -82 53 0 88 25 251 180 164 156 319 287 434 367 84 60 96 81 77 138 -26 78 -194 259 -315 340 -97 64 -200 89 -270 66z m167 -148 c27 -15 76 -49 110 -78 75 -61 185 -192 172 -204 -5 -5 -66 -54 -135 -109 -111 -88 -378 -329 -433 -391 -36 -40 -39 -27 -32 132 10 242 56 490 112 605 43 87 104 100 206 45z"/>
    <path d="M5805 6901 c-117 -42 -272 -160 -380 -287 -91 -108 -108 -169 -57 -216 15 -14 68 -53 119 -87 125 -83 253 -190 403 -336 134 -131 153 -145 197 -145 53 1 88 46 114 150 18 72 19 378 1 480 -33 184 -87 338 -140 393 -63 67 -157 84 -257 48z m153 -117 c68 -47 134 -316 136 -554 1 -135 -11 -250 -27 -250 -6 0 -65 53 -131 118 -138 134 -229 210 -368 306 -54 37 -98 70 -98 72 0 14 94 115 162 174 139 121 269 174 326 134z"/>
    <path d="M2820 5338 c-63 -17 -141 -78 -174 -138 -27 -47 -31 -65 -30 -125 0 -56 6 -81 29 -128 55 -111 201 -219 333 -246 217 -45 411 66 412 235 1 177 -163 362 -358 403 -63 13 -163 13 -212 -1z m257 -141 c101 -52 161 -125 183 -220 20 -91 -30 -149 -139 -162 -105 -11 -213 24 -296 97 -59 52 -85 103 -85 167 0 59 31 103 95 133 59 28 172 21 242 -15z"/>
    <path d="M4931 5335 c-118 -33 -242 -138 -297 -251 -21 -42 -29 -76 -32 -135 -4 -70 -2 -82 21 -121 50 -85 123 -126 241 -135 152 -12 302 39 410 138 167 152 140 393 -52 485 -71 34 -205 43 -291 19z m250 -131 c74 -43 101 -139 63 -220 -56 -117 -253 -196 -409 -164 -116 24 -144 94 -86 215 43 90 129 162 224 186 55 14 171 4 208 -17z"/>
    <path d="M5095 4320 c-129 -20 -239 -89 -306 -193 -85 -131 -74 -218 25 -193 16 4 31 24 50 69 31 74 88 136 154 169 66 32 217 33 278 1 54 -29 111 -93 140 -160 34 -77 89 -91 123 -31 13 22 12 31 -7 79 -74 182 -262 289 -457 259z"/>
    <path d="M2708 4301 c-118 -38 -212 -120 -269 -237 -34 -69 -33 -95 7 -121 36 -23 68 -5 100 59 51 101 113 156 208 183 152 44 307 -24 367 -160 28 -66 46 -85 80 -85 50 0 73 57 47 117 -47 109 -142 199 -254 239 -82 30 -201 32 -286 5z"/>
    <path d="M5780 3744 c-129 -35 -274 -151 -337 -270 -143 -270 -36 -611 237 -749 88 -45 155 -58 270 -53 100 4 111 7 195 48 242 116 370 382 310 639 -42 174 -187 324 -369 380 -82 25 -222 27 -306 5z m256 -118 c206 -55 337 -248 306 -449 -24 -154 -120 -289 -250 -350 -62 -30 -75 -32 -172 -32 -93 0 -111 3 -163 27 -79 37 -170 126 -207 202 -98 202 -38 432 142 548 99 63 232 84 344 54z"/>
    <path d="M6122 3225 c-16 -35 -15 -52 3 -63 13 -7 11 -15 -16 -56 l-32 -47 -42 41 c-24 23 -49 40 -56 38 -30 -7 -239 -119 -239 -127 0 -5 6 -14 13 -20 11 -8 37 1 111 39 54 28 104 50 111 50 7 0 44 -31 81 -70 62 -65 104 -88 104 -57 0 6 -11 25 -25 41 -14 16 -25 32 -25 35 0 3 18 26 39 50 l38 44 33 -42 c18 -22 39 -41 47 -41 23 0 14 34 -22 79 -32 40 -34 46 -20 61 30 33 9 70 -22 39 -13 -13 -33 -4 -33 17 0 24 -36 16 -48 -11z"/>
    <path d="M3844 3741 c-130 -21 -220 -68 -259 -135 -33 -58 -39 -112 -21 -181 28 -108 93 -179 244 -270 35 -20 66 -44 69 -51 15 -40 -33 -103 -102 -135 -78 -36 -164 -19 -249 50 -46 37 -71 37 -99 -1 -31 -42 -15 -74 61 -125 79 -53 126 -66 222 -61 108 5 179 43 251 136 l26 34 51 -54 c142 -150 337 -167 480 -43 33 29 42 43 42 69 0 37 -25 66 -58 66 -11 0 -36 -14 -54 -31 -90 -85 -220 -80 -311 11 -70 71 -66 88 45 165 113 79 140 105 177 174 38 72 47 125 31 192 -29 121 -159 187 -380 194 -63 2 -138 0 -166 -4z m291 -133 c115 -25 154 -68 133 -145 -18 -64 -59 -110 -160 -179 -54 -36 -105 -75 -113 -87 l-15 -21 -24 23 c-14 13 -67 51 -118 85 -107 70 -148 120 -155 190 -7 58 13 91 72 117 76 34 263 42 380 17z"/>
    <path d="M1750 3265 c-8 -23 -18 -35 -30 -35 -9 0 -23 -6 -29 -14 -16 -19 12 -46 48 -46 50 0 53 -17 15 -93 -27 -52 -33 -72 -24 -81 14 -13 49 27 76 86 18 41 24 44 57 26 49 -26 50 -34 12 -93 -19 -31 -33 -60 -30 -66 12 -18 33 -8 60 29 16 20 40 46 53 58 29 24 25 49 -10 64 -42 17 -91 67 -84 85 3 9 9 15 14 13 119 -61 142 -66 142 -28 0 13 -14 23 -51 35 -28 10 -60 28 -72 41 -11 13 -24 24 -29 24 -4 0 -17 -18 -28 -40 -23 -44 -26 -46 -54 -25 -18 14 -18 16 -3 33 24 26 22 62 -2 62 -13 0 -23 -11 -31 -35z"/>
    <path d="M2344 1088 c-38 -30 -75 -57 -81 -61 -8 -5 -31 6 -59 27 -26 20 -53 36 -61 36 -24 0 -27 -30 -4 -47 12 -8 34 -25 48 -37 l26 -23 -62 -47 c-33 -26 -61 -54 -61 -62 0 -31 30 -23 94 25 37 28 72 51 77 51 6 0 49 -25 95 -55 85 -55 107 -64 119 -45 10 16 -8 33 -95 86 -44 27 -80 51 -80 54 0 3 34 32 76 64 41 32 73 63 71 69 -8 26 -37 16 -103 -35z"/>
    <path d="M5824 1094 c-38 -26 -77 -54 -87 -62 -16 -14 -21 -12 -57 23 -25 24 -44 36 -54 32 -23 -9 -20 -22 16 -63 l32 -36 -25 -19 c-13 -10 -50 -36 -82 -57 -57 -37 -70 -63 -34 -70 10 -2 50 19 89 48 39 28 76 54 83 57 7 2 35 -19 61 -48 76 -82 83 -89 94 -89 6 0 13 7 16 15 4 9 -19 42 -60 89 l-66 73 90 59 c85 56 107 85 69 92 -8 1 -47 -18 -85 -44z"/>
    <path d="M5059 1014 c-10 -12 -7 -20 14 -42 32 -34 34 -48 7 -62 -11 -6 -20 -17 -20 -26 0 -25 30 -28 54 -5 l22 21 29 -30 c30 -32 65 -40 65 -16 0 8 -12 29 -27 47 l-27 32 38 32 c38 32 42 55 9 55 -8 0 -28 -11 -45 -25 -37 -31 -44 -31 -63 -1 -21 31 -40 38 -56 20z"/>
  </g>
</svg>
