<svg version="1.0" xmlns="http://www.w3.org/2000/svg"
 width="1024.000000pt" height="1024.000000pt" viewBox="0 0 1024.000000 1024.000000"
 preserveAspectRatio="xMidYMid meet">
<g transform="translate(0.000000,1024.000000) scale(0.100000,-0.100000)"
fill="#000000" stroke="none">
<path d="M1762 8864 c-337 -57 -624 -269 -767 -568 -79 -167 -108 -295 -109
-486 0 -171 16 -266 75 -435 101 -294 282 -570 549 -835 191 -191 413 -357
795 -597 236 -148 276 -165 382 -165 90 0 149 26 366 161 396 245 581 385 802
606 412 411 618 829 619 1255 0 205 -36 359 -125 530 -230 444 -769 654 -1275
499 -91 -28 -247 -108 -327 -169 l-64 -48 -73 54 c-78 59 -216 130 -318 164
-144 47 -365 62 -530 34z m290 -645 c138 -29 234 -108 312 -257 76 -144 147
-202 271 -222 71 -12 140 1 207 37 64 35 109 87 156 182 91 184 253 283 439
267 102 -8 173 -38 241 -101 102 -95 148 -210 140 -354 -21 -350 -367 -790
-906 -1152 -168 -112 -220 -139 -249 -128 -77 29 -383 246 -545 386 -411 357
-623 740 -564 1021 19 91 56 160 116 216 105 98 240 135 382 105z"/>
<path d="M6650 8865 c-445 -70 -779 -394 -866 -841 -23 -118 -23 -328 0 -449
51 -264 179 -528 384 -795 152 -196 448 -465 707 -641 164 -112 450 -288 521
-321 119 -56 222 -55 338 4 78 39 362 220 537 340 500 346 833 740 1000 1184
68 181 100 409 80 571 -39 315 -168 559 -390 735 -94 75 -268 160 -396 195
-89 23 -118 26 -270 27 -188 0 -268 -14 -424 -74 -82 -32 -236 -123 -282 -166
-26 -25 -26 -25 -100 31 -230 173 -539 247 -839 200z m270 -645 c138 -26 239
-107 316 -252 27 -51 65 -109 84 -129 79 -81 189 -117 300 -97 116 21 186 81
256 220 77 153 180 234 333 260 232 40 440 -109 481 -345 14 -79 2 -191 -30
-289 -29 -87 -108 -235 -177 -331 -103 -143 -339 -375 -528 -519 -69 -52 -278
-192 -347 -232 -55 -32 -47 -35 -223 77 -559 356 -936 818 -962 1182 -21 297
211 509 497 455z"/>
<path d="M361 6306 c-76 -33 -145 -108 -165 -177 -9 -30 -21 -108 -26 -174 -6
-66 -16 -174 -22 -240 -15 -159 -15 -871 0 -1000 43 -379 55 -459 99 -670 30
-140 138 -525 181 -640 148 -402 319 -752 541 -1107 223 -357 642 -838 946
-1087 50 -41 95 -79 100 -85 6 -6 73 -59 150 -117 645 -487 1387 -810 2175
-945 296 -51 792 -76 1085 -55 637 46 1174 186 1740 454 683 323 1231 741
1723 1314 67 79 122 145 122 149 0 3 15 24 34 47 138 170 348 504 488 777 195
378 355 812 433 1167 14 65 32 147 40 183 59 263 105 729 105 1060 0 317 -37
877 -64 963 -37 122 -137 197 -271 205 -111 6 -215 -43 -272 -129 -43 -65 -52
-127 -42 -295 11 -211 11 -848 -1 -1044 -21 -344 -89 -724 -186 -1035 -53
-169 -78 -243 -114 -335 -157 -395 -306 -671 -565 -1040 -191 -274 -563 -663
-820 -859 -38 -30 -88 -68 -110 -86 -57 -46 -355 -243 -450 -297 -248 -141
-616 -302 -845 -370 -470 -139 -709 -176 -1180 -185 -269 -4 -327 -3 -495 16
-343 39 -532 80 -895 193 -216 67 -594 239 -820 373 -365 217 -735 518 -1025
835 -79 87 -287 349 -341 430 -17 25 -50 74 -75 110 -117 169 -334 567 -382
702 -9 24 -34 88 -57 143 -57 137 -134 370 -180 550 -128 492 -161 872 -143
1635 12 494 10 510 -76 603 -74 81 -233 111 -340 63z"/>
<path d="M4990 5190 c-102 -15 -238 -57 -318 -101 -395 -212 -587 -652 -585
-1339 1 -374 59 -664 177 -886 191 -359 533 -555 924 -531 384 24 663 217 837
578 160 335 199 938 93 1429 -97 451 -374 754 -765 835 -95 20 -274 27 -363
15z m257 -642 c123 -40 211 -158 252 -338 71 -308 47 -836 -46 -1026 -36 -73
-111 -157 -166 -183 -65 -31 -143 -43 -207 -31 -174 33 -274 160 -328 413 -24
112 -26 142 -26 377 0 277 11 371 60 520 30 88 54 131 103 183 95 101 219 131
358 85z"/>
</g>
</svg>
