<svg version="1.0" xmlns="http://www.w3.org/2000/svg"
 width="1024.000000pt" height="1024.000000pt" viewBox="0 0 1024.000000 1024.000000"
 preserveAspectRatio="xMidYMid meet">
<g transform="translate(0.000000,1024.000000) scale(0.100000,-0.100000)"
fill="#000000" stroke="none">
<path d="M2775 8874 c-124 -19 -260 -50 -346 -80 -576 -200 -980 -726 -1073
-1392 -44 -319 -26 -438 81 -545 65 -65 134 -90 233 -85 91 6 158 37 214 98
65 72 78 116 87 285 15 290 75 485 211 682 317 459 977 524 1375 135 202 -198
323 -507 323 -828 0 -223 109 -360 296 -372 160 -10 284 78 330 234 30 103 9
361 -47 593 -162 666 -630 1133 -1259 1256 -82 16 -360 28 -425 19z"/>
<path d="M7096 8865 c-578 -94 -1026 -469 -1247 -1043 -81 -212 -143 -584
-125 -755 12 -117 78 -217 174 -264 50 -24 68 -28 147 -28 78 0 97 4 141 27
27 14 67 45 88 68 65 72 78 115 87 284 10 181 28 282 75 418 43 124 67 172
132 263 164 232 409 372 686 391 427 30 798 -235 947 -675 42 -122 59 -226 68
-396 9 -169 21 -208 86 -283 106 -122 302 -137 433 -33 92 74 129 184 117 360
-29 461 -165 826 -420 1130 -223 265 -539 454 -874 522 -131 27 -394 34 -515
14z"/>
<path d="M355 6301 c-78 -37 -139 -103 -159 -173 -9 -29 -21 -107 -26 -173 -6
-66 -15 -169 -20 -230 -17 -198 -23 -659 -11 -855 11 -169 59 -584 81 -698 56
-289 164 -667 250 -877 16 -38 47 -115 68 -170 88 -221 285 -601 417 -800 30
-46 55 -87 55 -90 0 -19 292 -399 423 -550 96 -111 383 -393 487 -479 52 -44
97 -82 100 -85 3 -3 68 -54 145 -112 366 -276 740 -488 1175 -664 116 -47 313
-116 400 -140 47 -12 123 -34 170 -48 117 -34 418 -95 556 -112 187 -23 509
-45 669 -45 305 0 698 40 930 95 33 8 96 21 140 30 399 83 951 305 1376 555
198 117 539 352 659 456 588 506 970 984 1298 1624 188 367 350 807 427 1157
14 65 32 145 40 178 57 248 105 732 105 1065 0 320 -37 874 -64 963 -24 81
-76 140 -156 179 -35 18 -63 23 -130 23 -74 0 -93 -4 -143 -29 -67 -33 -130
-104 -149 -169 -7 -27 -10 -89 -7 -177 2 -74 4 -358 3 -630 0 -530 -6 -618
-60 -940 -30 -181 -92 -445 -134 -570 -10 -30 -30 -93 -46 -140 -108 -337
-297 -723 -514 -1050 -119 -180 -174 -256 -269 -370 -26 -30 -55 -65 -66 -79
-148 -181 -416 -438 -645 -616 -106 -83 -206 -155 -216 -155 -2 0 -28 -17 -57
-38 -195 -144 -596 -348 -912 -464 -495 -181 -957 -256 -1510 -245 -292 5
-445 21 -712 73 -169 33 -223 46 -467 118 -246 73 -622 241 -876 391 -260 154
-500 334 -752 562 -195 177 -459 477 -596 678 -27 39 -69 99 -93 135 -119 171
-317 536 -379 695 -10 28 -38 95 -60 150 -111 265 -229 692 -270 975 -34 230
-41 297 -51 530 -9 186 -10 368 -2 675 10 449 8 487 -36 558 -76 124 -250 173
-386 108z"/>
<path d="M2223 5110 c-97 -20 -177 -82 -223 -172 -27 -56 -30 -70 -30 -159 0
-312 116 -812 276 -1185 317 -744 858 -1354 1539 -1738 574 -323 1235 -430
1869 -301 332 67 694 220 1006 426 720 474 1245 1197 1489 2052 82 286 143
700 121 817 -21 109 -101 209 -198 247 -45 17 -165 18 -2927 19 -1584 1 -2899
-2 -2922 -6z m5367 -643 c0 -2 -9 -43 -20 -92 -52 -240 -138 -481 -251 -709
-79 -156 -97 -188 -190 -326 -420 -623 -1033 -1047 -1684 -1162 -176 -32 -469
-31 -650 1 -479 85 -914 320 -1301 706 -220 218 -346 382 -494 638 -161 282
-268 568 -346 925 -4 22 -4 22 2466 22 1358 0 2470 -1 2470 -3z"/>
</g>
</svg>
