<svg version="1.0" xmlns="http://www.w3.org/2000/svg"
 width="1024.000000pt" height="1024.000000pt" viewBox="0 0 1024.000000 1024.000000"
 preserveAspectRatio="xMidYMid meet">
<g transform="translate(0.000000,1024.000000) scale(0.100000,-0.100000)"
fill="#000000" stroke="none">
<path d="M355 6302 c-77 -37 -140 -107 -160 -176 -14 -48 -21 -113 -45 -406
-18 -217 -23 -637 -11 -845 38 -619 152 -1132 384 -1715 130 -328 378 -780
581 -1059 107 -148 289 -373 398 -491 490 -536 1156 -994 1838 -1265 389 -155
792 -259 1200 -309 128 -16 454 -36 590 -36 296 0 620 32 912 91 738 148 1404
449 2038 923 74 55 146 110 160 122 609 523 1007 1031 1335 1699 408 832 576
1689 525 2685 -14 269 -38 558 -50 601 -12 42 -65 120 -100 146 -83 63 -204
80 -305 42 -110 -41 -188 -151 -187 -263 0 -23 3 -248 7 -501 10 -608 -8 -897
-76 -1254 -249 -1301 -1043 -2429 -2163 -3075 -488 -281 -1064 -476 -1606
-541 -210 -26 -666 -31 -870 -11 -402 41 -732 116 -1087 247 -827 307 -1551
872 -2067 1614 -167 240 -363 595 -444 800 -11 28 -36 91 -57 140 -54 131
-131 368 -175 540 -128 492 -161 876 -142 1633 10 436 7 486 -33 549 -58 92
-135 135 -250 140 -72 4 -86 1 -140 -25z"/>
<path d="M1927 6296 c-129 -46 -209 -174 -194 -308 13 -109 113 -257 292 -433
219 -216 466 -352 735 -407 148 -29 407 -31 540 -4 388 79 741 322 972 668 89
132 101 245 37 356 -88 155 -287 188 -438 73 -18 -14 -54 -57 -79 -96 -63 -95
-230 -260 -317 -313 -155 -92 -300 -128 -475 -119 -241 14 -419 101 -596 290
-42 45 -96 112 -121 150 -50 75 -85 106 -156 136 -56 24 -143 27 -200 7z"/>
<path d="M6087 6296 c-88 -32 -150 -98 -183 -198 -46 -140 41 -307 282 -545
220 -217 477 -355 759 -410 123 -24 386 -23 510 0 198 39 397 125 570 247 162
115 380 354 457 500 19 37 23 60 23 130 0 77 -3 90 -31 140 -36 64 -107 123
-171 140 -24 7 -71 11 -106 8 -105 -9 -177 -57 -245 -163 -61 -95 -228 -260
-321 -315 -288 -172 -650 -157 -919 39 -82 60 -206 190 -259 271 -54 83 -82
110 -148 141 -68 33 -152 38 -218 15z"/>
<path d="M3277 3736 c-173 -62 -251 -246 -173 -412 35 -75 153 -248 240 -352
291 -349 691 -616 1119 -747 389 -118 838 -125 1241 -20 286 74 614 240 851
430 170 136 366 350 486 532 104 158 124 205 124 288 -1 160 -112 280 -269
292 -115 10 -215 -41 -276 -138 -207 -335 -426 -544 -730 -698 -413 -209 -865
-244 -1300 -101 -383 126 -725 398 -938 748 -29 48 -70 102 -90 119 -74 65
-197 90 -285 59z"/>
</g>
</svg>
