<svg version="1.0" xmlns="http://www.w3.org/2000/svg" width="800.000000" height="800.000000" viewBox="0 0 800.000000 800.000000" preserveAspectRatio="xMidYMid meet">
  <g transform="translate(153.566612,648.184285) scale(0.061605,-0.061605)" fill="#000000" stroke="#000000" stroke-width="240" stroke-linejoin="round" stroke-linecap="round">
    <path d="M1891 7425 c-244 -69 -386 -295 -484 -770 -60 -290 -79 -535 -100 -1325 l-3 -115 -62 -147 c-188 -450 -247 -683 -272 -1080 -24 -376 41 -751 181 -1043 112 -234 258 -414 474 -584 44 -35 81 -65 83 -66 2 -2 -25 -47 -59 -102 -75 -118 -121 -213 -151 -319 -20 -69 -23 -102 -23 -249 0 -150 3 -179 23 -245 65 -209 177 -352 463 -586 152 -124 402 -182 742 -171 137 4 176 9 252 31 100 30 167 64 224 112 l38 33 124 -15 c349 -41 1106 -20 1352 37 l47 11 46 -42 c206 -190 825 -230 1144 -74 65 32 147 107 184 169 10 17 38 46 63 65 77 60 189 184 231 256 22 38 53 105 69 149 25 74 27 92 28 230 0 125 -4 164 -23 235 -24 89 -106 272 -146 325 -12 16 -35 52 -51 79 l-29 49 31 26 c17 14 66 51 109 81 102 71 263 233 338 338 145 205 235 435 283 727 25 152 25 511 0 680 -47 316 -102 512 -240 860 l-92 230 3 416 c3 427 -2 542 -39 809 -42 309 -105 543 -192 715 -56 109 -167 222 -252 256 -52 21 -76 24 -185 24 -115 -1 -133 -3 -219 -33 -232 -80 -563 -284 -868 -533 -46 -38 -90 -69 -98 -69 -7 0 -55 9 -106 19 -467 96 -908 99 -1430 11 -180 -31 -167 -34 -299 77 -236 198 -465 353 -650 440 -169 80 -345 110 -459 78z m293 -146 c202 -67 485 -251 788 -511 111 -95 133 -100 278 -73 292 56 576 80 850 72 220 -6 364 -23 555 -63 221 -47 218 -47 308 29 170 145 412 317 578 412 438 252 670 232 814 -69 110 -231 170 -536 210 -1071 4 -44 1 -215 -6 -380 -16 -386 -14 -397 109 -710 94 -240 108 -282 147 -430 67 -252 95 -463 95 -705 0 -188 -9 -286 -41 -444 -27 -135 -34 -143 -48 -60 -15 86 -66 213 -117 290 -76 117 -222 244 -335 292 -110 48 -199 65 -329 65 -191 1 -312 -34 -482 -140 -264 -163 -399 -199 -588 -159 -143 31 -187 56 -377 214 -292 243 -701 278 -1075 92 -44 -22 -96 -52 -116 -67 -20 -15 -68 -50 -107 -79 -159 -119 -285 -166 -440 -166 -133 0 -227 30 -356 112 -173 112 -270 147 -429 156 -230 14 -483 -69 -635 -208 -118 -108 -201 -248 -225 -379 -21 -112 -24 -112 -53 6 -55 225 -62 283 -62 550 0 229 3 263 28 408 16 87 46 222 68 299 38 135 128 377 172 463 11 22 31 74 45 115 23 72 25 91 33 437 13 598 49 926 133 1234 57 208 104 307 190 398 109 115 226 134 420 70z m1922 -3359 c172 -22 333 -98 473 -224 160 -144 317 -206 524 -206 156 0 276 43 490 174 170 104 244 128 420 134 130 4 143 3 223 -23 178 -58 322 -182 408 -352 56 -112 81 -301 56 -432 -23 -121 -86 -231 -202 -356 -148 -158 -332 -269 -573 -346 -448 -142 -714 -269 -945 -454 -140 -112 -240 -264 -296 -451 -23 -76 -27 -108 -28 -224 -1 -74 2 -154 6 -176 l8 -42 -63 -11 c-182 -31 -648 -56 -882 -47 -235 8 -425 26 -425 40 1 6 7 38 15 71 27 112 15 286 -30 420 -71 213 -236 420 -446 561 -151 101 -286 156 -654 264 -169 49 -385 152 -501 239 -129 96 -265 251 -317 364 -62 131 -74 337 -27 475 89 266 333 433 655 449 159 8 270 -26 420 -127 152 -103 278 -143 445 -144 173 -1 310 51 515 198 152 109 241 156 362 191 140 41 247 51 369 35z m-2169 -1726 c48 -19 185 -64 303 -100 118 -36 257 -82 309 -102 l93 -37 -118 -7 c-313 -17 -539 -157 -663 -412 -58 -118 -82 -207 -84 -317 -1 -43 -4 -79 -7 -78 -9 1 -50 57 -86 116 -134 223 -121 570 32 811 48 76 114 162 125 162 4 0 48 -16 96 -36z m4248 -51 c71 -100 137 -234 170 -348 38 -128 38 -285 1 -402 -27 -84 -82 -177 -135 -227 l-30 -29 5 50 c8 60 -17 192 -51 276 -76 189 -220 334 -417 419 -99 42 -153 56 -267 66 l-75 7 170 72 c93 39 223 88 289 108 66 20 152 47 190 60 39 13 75 24 82 24 7 1 37 -34 68 -76z m-3420 -347 c91 -29 155 -66 225 -132 135 -126 230 -374 216 -561 -14 -186 -105 -284 -311 -339 -57 -15 -105 -18 -255 -18 -186 1 -300 14 -418 49 l-53 16 61 74 c34 41 67 75 74 75 6 0 30 -18 51 -40 21 -22 47 -40 57 -40 32 0 19 34 -31 84 l-49 48 64 77 c35 42 63 82 62 90 -6 29 -30 22 -66 -20 -20 -23 -51 -58 -69 -78 l-32 -36 -70 69 c-47 47 -74 67 -85 63 -9 -4 -16 -11 -16 -17 0 -5 32 -43 70 -84 l71 -74 -52 -63 c-28 -35 -56 -74 -62 -87 -12 -27 -19 -25 -93 24 -206 137 -207 492 -1 737 50 61 161 140 236 168 145 55 331 61 476 15z m2818 9 c345 -91 559 -432 472 -750 -22 -78 -85 -168 -147 -209 -232 -153 -859 -129 -1047 40 -62 55 -81 105 -88 219 -5 77 -2 107 21 198 43 172 104 287 198 373 140 130 386 183 591 129z"/>
    <path d="M2060 6941 c-139 -43 -216 -183 -271 -496 -32 -182 -34 -479 -4 -540 14 -28 30 -44 57 -53 34 -13 41 -12 80 7 24 11 113 84 198 162 85 77 224 195 308 261 84 66 161 132 172 146 31 39 26 99 -11 156 -43 64 -222 242 -293 290 -91 63 -174 86 -236 67z m140 -152 c68 -38 290 -259 290 -288 0 -14 -31 -44 -97 -94 -147 -111 -224 -176 -366 -308 -71 -65 -133 -116 -139 -113 -16 10 -2 297 21 432 31 178 74 315 113 363 40 48 102 51 178 8z"/>
    <path d="M5829 6907 c-59 -22 -150 -76 -214 -128 -86 -69 -232 -219 -244 -252 -29 -76 -9 -111 103 -188 165 -113 259 -191 417 -346 152 -149 158 -153 199 -153 35 0 48 6 74 33 60 64 87 256 68 473 -27 295 -91 474 -194 537 -56 35 -151 46 -209 24z m141 -122 c51 -27 104 -170 129 -350 19 -135 10 -429 -14 -453 -3 -3 -69 57 -148 134 -141 139 -234 216 -374 309 -40 26 -73 52 -73 57 0 14 97 114 179 185 82 70 197 133 243 133 16 0 42 -7 58 -15z"/>
    <path d="M3500 6522 c0 -10 14 -31 30 -47 17 -16 30 -35 30 -42 0 -8 -22 -38 -50 -67 -27 -29 -50 -60 -50 -69 0 -33 37 -17 89 38 l53 55 52 -45 c29 -25 58 -45 65 -45 25 0 8 44 -34 84 -25 25 -45 47 -45 51 0 4 14 23 30 42 34 38 37 51 13 60 -11 4 -27 -6 -51 -31 l-34 -38 -37 36 c-41 40 -61 46 -61 18z"/>
    <path d="M4965 5350 c-113 -24 -245 -100 -294 -168 -62 -87 -82 -204 -48 -283 45 -108 143 -162 292 -162 146 0 274 47 371 135 76 70 104 130 104 223 -1 164 -104 256 -295 261 -49 2 -108 -1 -130 -6z m198 -121 c21 -5 52 -23 69 -38 26 -23 32 -37 36 -83 5 -66 -10 -99 -69 -152 -58 -53 -133 -85 -230 -97 -104 -14 -159 -1 -206 46 -30 30 -33 39 -33 89 0 67 16 101 65 144 93 82 256 123 368 91z"/>
    <path d="M2825 5336 c-124 -39 -195 -125 -195 -235 0 -190 215 -354 465 -354 100 0 152 17 214 69 79 67 105 207 57 309 -45 95 -154 177 -281 210 -71 18 -204 19 -260 1z m257 -126 c70 -21 147 -80 173 -131 21 -40 19 -108 -5 -146 -48 -79 -169 -91 -326 -32 -58 22 -137 86 -159 130 -18 34 -19 89 -3 125 31 68 188 95 320 54z"/>
    <path d="M2823 4521 c-86 -22 -167 -95 -212 -191 -23 -50 -26 -67 -26 -175 0 -109 2 -125 26 -176 59 -124 152 -189 274 -189 56 0 82 5 122 26 141 70 218 259 179 436 -28 125 -78 198 -170 245 -54 27 -139 38 -193 24z m136 -126 c32 -16 41 -33 41 -75 0 -44 -29 -71 -82 -77 -42 -5 -50 -3 -78 25 -39 39 -39 74 -1 113 33 33 75 38 120 14z"/>
    <path d="M5030 4521 c-79 -24 -155 -96 -197 -186 -26 -55 -28 -70 -28 -175 0 -105 3 -120 29 -177 30 -66 97 -137 157 -168 19 -10 64 -20 100 -23 56 -4 75 -1 121 20 73 34 119 76 156 145 87 163 55 374 -73 491 -78 71 -179 99 -265 73z m131 -140 c31 -32 36 -55 18 -95 -22 -48 -115 -59 -152 -18 -76 84 53 194 134 113z"/>
    <path d="M3860 3750 c-114 -13 -186 -43 -245 -104 -73 -74 -90 -142 -60 -244 23 -75 78 -137 208 -232 65 -46 117 -88 117 -92 0 -17 -76 -79 -116 -94 -88 -34 -194 2 -232 79 -38 78 -137 34 -115 -51 7 -29 81 -105 124 -128 17 -8 31 -25 35 -42 63 -293 116 -393 243 -461 84 -44 172 -52 267 -23 140 43 238 172 285 379 12 54 26 103 31 110 5 7 34 26 64 43 83 47 119 124 76 163 -30 27 -58 20 -105 -27 -65 -67 -131 -78 -225 -39 -33 14 -122 89 -122 103 0 3 49 46 109 94 60 47 121 101 136 118 116 138 89 308 -62 390 -97 53 -259 75 -413 58z m313 -141 c21 -7 55 -27 75 -45 33 -28 37 -36 36 -78 -1 -35 -9 -58 -30 -89 -37 -52 -270 -230 -288 -220 -66 41 -206 145 -241 179 -53 51 -73 109 -56 166 25 81 113 109 321 104 83 -2 161 -9 183 -17z m-143 -644 c25 -30 99 -76 162 -99 48 -18 64 -29 66 -45 5 -33 -44 -195 -72 -240 -76 -119 -221 -153 -334 -77 -55 37 -109 133 -129 232 -22 102 -20 110 29 118 56 9 147 59 193 106 40 41 55 42 85 5z"/>
    <path d="M5860 3740 c-65 -11 -164 -54 -220 -95 -138 -101 -210 -246 -210 -420 1 -157 45 -260 160 -375 175 -176 397 -208 605 -90 183 105 301 308 282 488 -33 311 -323 542 -617 492z m248 -156 c126 -60 218 -176 242 -304 28 -143 -40 -291 -181 -395 -195 -144 -462 -68 -576 163 -37 74 -38 79 -38 182 1 95 3 111 30 165 53 109 169 200 285 225 75 15 157 2 238 -36z"/>
    <path d="M1880 3712 c-164 -44 -304 -181 -345 -337 -22 -87 -20 -218 6 -301 57 -183 228 -332 420 -364 317 -54 625 225 595 540 -20 213 -153 381 -357 451 -88 30 -231 35 -319 11z m283 -126 c137 -49 232 -154 262 -291 14 -61 15 -87 6 -136 -15 -87 -51 -157 -109 -213 -128 -125 -295 -157 -446 -86 -75 36 -160 121 -198 198 -31 63 -33 72 -33 177 1 127 18 176 88 252 107 116 273 154 430 99z"/>
    <path d="M2021 3130 c-30 -35 -61 -60 -72 -60 -39 0 -18 -30 64 -89 57 -41 87 -47 87 -17 0 8 -20 29 -45 46 -25 17 -45 34 -45 37 0 3 23 30 50 59 28 29 50 60 50 68 0 33 -39 14 -89 -44z"/>
    <path d="M5470 1173 c0 -10 29 -47 66 -84 l65 -66 -107 -112 c-100 -106 -105 -114 -89 -129 15 -16 23 -10 120 91 57 59 109 107 116 107 7 0 30 -16 50 -36 24 -23 43 -34 53 -31 25 10 19 23 -24 63 -22 21 -40 41 -40 47 0 5 20 32 45 59 49 55 53 65 29 75 -10 4 -32 -10 -63 -41 -26 -25 -51 -46 -57 -46 -5 0 -36 27 -69 60 -59 60 -95 76 -95 43z"/>
    <path d="M5150 1054 l-52 -66 -29 32 c-48 52 -71 10 -24 -44 l25 -29 -36 -44 c-34 -42 -36 -46 -20 -61 16 -16 20 -14 56 24 l39 42 27 -29 c28 -29 64 -39 64 -18 0 6 -13 27 -30 46 -16 18 -30 37 -30 42 0 5 23 39 50 76 54 73 61 95 31 95 -12 0 -39 -26 -71 -66z"/>
  </g>
</svg>
