<svg version="1.0" xmlns="http://www.w3.org/2000/svg" width="800.000000" height="800.000000" viewBox="0 0 800.000000 800.000000" preserveAspectRatio="xMidYMid meet">
  <g transform="translate(159.898709,642.311540) scale(0.060227,-0.060227)" fill="#000000" stroke="#000000" stroke-width="240" stroke-linejoin="round" stroke-linecap="round">
    <path d="M1865 7497 c-94 -29 -157 -76 -234 -178 -70 -91 -128 -212 -181 -368 -107 -324 -151 -679 -149 -1216 1 -409 -1 -423 -126 -750 -162 -422 -229 -768 -229 -1175 0 -189 4 -246 23 -355 71 -406 191 -654 440 -908 76 -78 260 -228 294 -240 7 -2 -7 -25 -34 -58 -104 -123 -172 -247 -215 -394 -38 -131 -45 -335 -15 -456 46 -183 145 -327 295 -424 69 -44 81 -58 113 -118 70 -133 207 -228 408 -284 94 -26 112 -28 300 -28 177 0 210 3 290 23 124 32 260 100 329 163 42 39 62 50 79 46 316 -72 406 -82 727 -82 300 1 385 9 631 66 l86 20 34 -32 c92 -87 236 -155 399 -190 82 -17 141 -22 265 -22 170 -1 240 8 370 49 170 54 304 153 356 261 13 28 37 59 52 68 119 72 225 206 269 340 81 244 55 509 -76 789 -23 51 -59 117 -79 149 -20 32 -37 61 -37 66 0 4 30 28 68 53 237 159 434 433 588 821 199 501 152 1147 -136 1872 -99 250 -92 198 -101 740 -7 508 -15 614 -65 890 -55 305 -130 526 -223 664 -58 85 -150 165 -218 191 -86 32 -215 25 -343 -19 -259 -90 -611 -312 -890 -562 -40 -35 -78 -67 -86 -72 -7 -4 -57 4 -111 17 -105 27 -270 57 -423 78 -123 16 -534 16 -665 -1 -55 -7 -172 -26 -260 -42 -88 -17 -188 -35 -223 -42 l-62 -11 -53 50 c-260 250 -644 500 -898 585 -106 35 -219 46 -284 26z m175 -123 c236 -55 582 -272 945 -593 95 -84 89 -83 282 -41 320 69 476 84 795 77 246 -5 399 -24 638 -81 188 -45 167 -47 251 29 308 279 660 505 926 594 167 56 257 39 351 -64 50 -54 117 -178 153 -283 51 -145 110 -433 140 -677 6 -49 14 -306 18 -570 9 -557 4 -520 124 -835 236 -620 294 -1072 196 -1520 -23 -106 -35 -127 -44 -84 -38 173 -194 364 -399 488 -126 76 -273 116 -428 116 -162 0 -251 -25 -463 -133 -301 -153 -325 -161 -470 -160 -70 0 -107 6 -168 27 -79 27 -109 43 -271 156 -110 76 -243 141 -361 176 -84 26 -102 28 -290 28 -189 1 -205 0 -299 -27 -145 -40 -264 -101 -403 -205 -68 -50 -146 -105 -175 -121 -109 -62 -270 -77 -414 -41 -79 20 -202 73 -252 109 -64 45 -233 121 -317 141 -74 19 -107 22 -190 17 -241 -13 -442 -119 -584 -308 -60 -79 -150 -249 -152 -286 -1 -28 -25 -88 -31 -77 -9 14 -36 129 -54 229 -26 140 -30 485 -9 660 37 307 97 532 250 945 85 228 86 235 95 750 7 370 12 481 29 595 75 526 219 867 404 960 59 29 87 31 177 9z m2120 -3483 c155 -35 284 -96 449 -213 185 -131 270 -162 456 -162 157 -1 212 16 470 148 239 123 301 141 460 140 124 -1 205 -19 297 -65 193 -97 331 -237 390 -394 31 -81 33 -281 4 -365 -63 -186 -214 -393 -383 -522 -111 -86 -147 -102 -648 -290 -154 -58 -381 -168 -484 -234 -292 -190 -434 -364 -503 -616 -20 -71 -23 -107 -23 -251 0 -140 -2 -168 -15 -172 -43 -13 -208 -46 -300 -60 -150 -22 -440 -30 -587 -16 -124 12 -354 51 -425 73 l-39 12 7 50 c14 100 7 247 -16 336 -26 104 -85 231 -144 313 -96 136 -342 344 -509 432 -45 24 -208 94 -362 155 -154 62 -324 135 -378 162 -244 125 -470 336 -558 521 -102 215 -37 492 165 705 81 85 165 136 278 169 214 62 343 36 610 -121 166 -97 298 -136 467 -136 176 0 263 34 460 179 196 145 301 195 469 225 114 21 290 19 392 -3z m-2242 -1697 c48 -20 200 -81 337 -136 138 -55 266 -108 285 -119 l35 -18 -61 -1 c-88 0 -215 -35 -324 -88 -81 -39 -108 -59 -185 -136 -105 -106 -154 -184 -196 -316 -24 -75 -31 -113 -31 -187 -1 -51 -4 -93 -8 -93 -3 0 -32 26 -63 57 -206 206 -221 590 -35 888 44 69 137 185 149 185 6 0 49 -16 97 -36z m4260 -61 c126 -215 182 -394 182 -589 0 -180 -53 -343 -142 -433 l-43 -44 -7 79 c-25 303 -195 568 -438 686 -108 52 -163 68 -270 78 l-75 6 50 23 c181 84 283 125 490 199 199 71 198 70 206 66 4 -2 25 -34 47 -71z m-3566 -344 c281 -44 483 -256 547 -577 31 -151 2 -316 -69 -389 -92 -96 -315 -163 -541 -163 -161 0 -333 41 -449 107 -131 74 -200 208 -200 387 0 113 21 199 73 301 102 196 317 332 545 344 13 0 55 -4 94 -10z m2927 -15 c204 -50 383 -214 457 -416 28 -75 43 -150 50 -239 9 -115 -16 -204 -77 -273 -53 -60 -99 -89 -199 -126 -226 -83 -524 -83 -753 1 -158 57 -229 125 -247 235 -46 279 76 590 286 729 139 93 328 127 483 89z"/>
    <path d="M2034 6991 c-140 -35 -215 -188 -258 -524 -33 -260 -29 -484 11 -566 23 -46 63 -66 104 -52 17 6 97 78 187 169 86 87 222 213 302 281 80 67 157 138 173 158 39 51 37 104 -5 169 -51 77 -296 318 -348 342 -53 24 -122 34 -166 23z m124 -141 c39 -24 186 -169 255 -251 29 -35 45 -62 41 -72 -3 -8 -33 -37 -67 -64 -105 -82 -247 -210 -376 -339 -68 -68 -126 -124 -129 -124 -11 0 7 429 21 505 36 192 73 301 117 345 27 27 94 26 138 0z"/>
    <path d="M5880 6991 c-99 -30 -236 -125 -374 -260 -124 -121 -146 -153 -146 -212 0 -63 16 -82 203 -226 83 -65 223 -187 310 -270 87 -84 169 -156 182 -159 86 -21 132 58 156 269 24 222 -26 578 -104 732 -56 111 -134 154 -227 126z m86 -128 c41 -41 93 -219 114 -386 13 -104 9 -389 -7 -440 l-8 -28 -125 121 c-69 66 -200 180 -292 251 -93 72 -168 136 -168 143 0 19 200 208 280 265 79 56 144 90 172 91 9 0 24 -8 34 -17z"/>
    <path d="M4984 5361 c-122 -20 -278 -144 -335 -265 -92 -196 19 -385 237 -403 126 -10 269 46 366 143 65 64 92 122 96 211 9 167 -84 281 -253 312 -32 6 -61 10 -64 10 -3 -1 -25 -5 -47 -8z m157 -144 c80 -42 112 -152 70 -236 -23 -45 -85 -102 -140 -131 -22 -11 -71 -25 -109 -32 -61 -10 -75 -9 -115 6 -157 60 -140 227 35 360 80 60 182 73 259 33z"/>
    <path d="M2837 5326 c-124 -46 -199 -147 -198 -268 0 -99 29 -165 106 -237 121 -114 298 -159 432 -110 109 41 193 154 193 259 0 39 -29 128 -54 169 -38 59 -122 130 -194 164 -58 28 -80 32 -157 35 -58 1 -103 -3 -128 -12z m215 -126 c65 -24 142 -89 168 -141 23 -45 26 -118 6 -157 -48 -92 -172 -116 -301 -58 -110 50 -170 131 -163 222 11 126 146 189 290 134z"/>
    <path d="M1498 5178 c-2 -19 -9 -23 -38 -23 -46 0 -47 -26 -2 -40 27 -8 32 -14 32 -40 0 -16 -3 -41 -7 -53 -6 -25 -3 -25 -95 -5 -27 5 -28 3 -28 -32 l0 -38 38 6 c49 8 61 -1 54 -41 -3 -26 -9 -33 -22 -29 -22 6 -45 -7 -36 -21 3 -5 42 -24 86 -42 44 -18 83 -36 86 -41 10 -17 44 -10 44 9 0 13 -19 28 -61 47 -58 28 -60 31 -55 59 4 16 9 32 12 35 3 3 40 -7 82 -22 91 -32 92 -32 92 -9 0 17 -59 48 -143 76 -17 5 -18 13 -12 59 4 28 9 54 11 56 1 2 23 -5 48 -14 43 -17 66 -14 66 6 0 6 -25 21 -55 34 -49 22 -55 28 -55 55 0 23 -5 30 -19 30 -13 0 -21 -8 -23 -22z"/>
    <path d="M1343 4892 c-6 -4 -13 -28 -15 -52 -3 -43 -5 -45 -36 -48 -28 -3 -31 -6 -22 -23 6 -10 20 -19 31 -19 17 0 19 -6 17 -36 -4 -48 19 -57 35 -15 13 36 12 35 64 17 45 -16 77 -6 55 16 -7 7 -31 19 -55 28 -42 16 -42 16 -42 68 0 53 -12 76 -32 64z"/>
    <path d="M2686 4359 c-77 -18 -155 -70 -237 -157 -84 -90 -97 -123 -61 -154 41 -36 51 -32 141 60 103 106 157 136 246 136 42 -1 73 -7 103 -23 56 -29 125 -97 152 -153 42 -82 66 -95 114 -57 34 26 33 50 -4 115 -105 183 -281 274 -454 233z"/>
    <path d="M5057 4339 c-110 -37 -198 -111 -256 -213 -46 -79 -38 -121 25 -140 27 -8 47 10 79 74 78 153 265 220 404 145 54 -30 105 -83 135 -142 9 -18 28 -40 41 -49 23 -15 27 -15 50 0 36 24 42 60 18 110 -27 55 -115 151 -168 181 -97 57 -223 70 -328 34z"/>
    <path d="M5845 3749 c-131 -16 -238 -71 -327 -168 -200 -215 -196 -539 8 -746 187 -191 471 -224 687 -81 110 73 200 193 237 317 109 361 -219 728 -605 678z m254 -158 c173 -89 273 -268 243 -438 -37 -209 -215 -365 -416 -364 -133 1 -229 43 -321 142 -88 94 -128 225 -106 347 29 162 126 278 277 332 48 17 77 20 159 17 90 -3 106 -6 164 -36z"/>
    <path d="M5894 3225 c-5 -11 5 -29 30 -54 20 -20 36 -41 36 -47 0 -5 -36 -45 -79 -88 -75 -75 -101 -119 -78 -133 6 -3 53 38 104 93 l94 99 26 -30 c64 -75 136 -145 149 -145 31 0 10 39 -68 124 -57 61 -78 91 -69 94 8 3 25 16 37 29 22 23 24 24 48 8 24 -16 26 -16 32 -1 13 35 -51 88 -70 58 -2 -4 -19 -9 -37 -10 -37 -3 -59 -17 -59 -39 0 -10 -4 -11 -12 -4 -76 62 -78 63 -84 46z"/>
    <path d="M3760 3737 c-81 -20 -124 -41 -174 -87 -105 -97 -101 -252 12 -389 30 -37 178 -154 248 -197 18 -11 18 -13 -5 -38 -14 -14 -47 -37 -75 -51 -91 -45 -184 -31 -290 46 -51 36 -71 35 -100 -4 -19 -26 -19 -30 -6 -55 9 -15 48 -49 88 -76 72 -49 72 -50 72 -95 0 -47 22 -182 38 -237 20 -66 68 -148 117 -199 153 -159 393 -161 545 -5 81 83 148 236 180 410 l12 65 69 48 c38 26 76 59 85 73 16 23 16 28 1 60 -22 45 -55 45 -110 0 -23 -18 -56 -41 -74 -50 -47 -24 -128 -20 -188 8 -50 24 -124 81 -115 88 206 159 288 257 308 369 20 104 -15 186 -102 245 -85 58 -159 76 -331 80 -101 2 -168 -1 -205 -9z m378 -132 c64 -19 119 -51 132 -75 16 -30 11 -98 -9 -138 -10 -20 -38 -59 -61 -85 -56 -63 -207 -180 -224 -174 -7 3 -58 35 -113 71 -200 132 -270 241 -213 333 21 36 80 70 143 83 63 14 283 4 345 -15z m-84 -686 c71 -53 158 -99 191 -99 47 -1 50 -13 31 -97 -41 -173 -104 -284 -190 -333 -43 -25 -62 -30 -119 -30 -179 0 -267 108 -311 381 l-13 77 61 10 c78 13 136 40 206 96 30 25 60 45 66 45 6 1 41 -22 78 -50z"/>
    <path d="M1846 3720 c-136 -48 -244 -145 -305 -273 -86 -180 -74 -364 36 -530 96 -145 254 -226 438 -227 256 0 486 194 525 444 23 145 -28 311 -127 417 -59 64 -167 136 -242 162 -86 30 -248 34 -325 7z m279 -120 c118 -41 209 -120 262 -229 25 -50 28 -67 28 -161 0 -93 -3 -111 -27 -163 -33 -69 -116 -156 -184 -190 -209 -105 -455 -25 -556 181 -31 63 -33 73 -33 177 0 98 3 116 27 167 47 102 148 191 251 223 64 21 165 18 232 -5z"/>
    <path d="M2755 1113 c-12 -51 -14 -53 -50 -53 -23 0 -38 -6 -42 -15 -8 -23 3 -30 48 -29 37 1 39 0 39 -28 0 -27 -2 -30 -26 -24 -38 10 -115 -4 -121 -21 -7 -18 16 -34 39 -27 12 4 17 -2 20 -23 4 -35 30 -37 38 -3 4 18 13 25 30 25 24 0 25 -2 28 -87 2 -66 6 -88 16 -88 18 0 26 32 26 111 0 66 0 67 31 73 17 3 44 6 60 6 22 0 29 5 29 20 0 18 -7 20 -60 20 l-60 0 0 30 c0 22 5 30 18 30 38 0 92 21 92 36 0 13 -11 15 -55 12 -54 -3 -54 -3 -57 27 -4 41 -35 47 -43 8z"/>
    <path d="M2215 1101 c-26 -4 -40 -11 -40 -21 0 -11 11 -15 40 -16 36 0 40 -3 43 -27 3 -25 0 -27 -30 -26 -18 0 -57 4 -85 8 -57 8 -79 1 -70 -21 3 -10 35 -19 96 -27 l91 -13 0 -81 c0 -95 11 -123 36 -92 12 16 15 36 11 94 l-6 73 57 -6 c31 -4 66 -8 77 -9 11 -1 21 5 23 15 4 21 -33 38 -81 38 -58 0 -77 10 -77 39 0 15 5 32 11 38 7 7 9 19 6 27 -7 17 -29 18 -102 7z"/>
    <path d="M5634 1105 c-4 -17 -13 -25 -28 -25 -41 0 -66 -12 -66 -31 0 -21 24 -25 64 -9 23 9 26 7 26 -14 0 -25 -21 -36 -70 -36 -33 0 -53 -19 -40 -36 7 -7 27 -10 57 -6 45 5 46 4 39 -19 -15 -53 -29 -139 -23 -145 16 -17 36 10 47 63 24 116 21 114 69 40 52 -80 67 -95 83 -79 9 9 0 29 -35 79 l-46 68 42 3 c51 4 65 15 47 37 -10 12 -27 16 -69 13 -50 -3 -56 -1 -56 17 0 14 10 21 39 27 53 11 68 25 55 49 -12 23 -32 24 -49 4 -17 -21 -37 -19 -45 5 -9 28 -33 25 -41 -5z"/>
    <path d="M5137 1113 c-4 -3 -7 -17 -7 -30 0 -19 -7 -24 -40 -29 -31 -5 -40 -11 -40 -27 0 -18 5 -19 50 -14 36 4 50 3 50 -6 0 -7 3 -21 6 -33 4 -17 -3 -26 -39 -47 -24 -14 -49 -33 -56 -41 -23 -28 16 -31 61 -6 45 25 52 21 63 -39 9 -54 26 -91 41 -91 18 0 18 23 -2 106 -14 64 -14 69 2 81 10 7 23 13 29 13 20 0 55 44 46 59 -7 10 -17 9 -50 -8 -44 -23 -61 -21 -61 7 0 13 18 22 71 36 64 16 92 36 75 53 -5 5 -63 -5 -132 -23 -17 -4 -23 0 -28 20 -6 25 -25 34 -39 19z"/>
  </g>
</svg>
